<svg version="1.1" id="Layer_1" xmlns="http://www.w3.org/2000/svg" x="0" y="0" viewBox="0 0 56 20" xml:space="preserve"><style/><linearGradient id="SVGID_1_" gradientUnits="userSpaceOnUse" x1="-76" y1="0" x2="-76.707" y2=".707"><stop offset="0" stop-color="#ee4447"/><stop offset="1" stop-color="#c5166c"/></linearGradient><path d="M54 20H2c-1.1 0-2-.9-2-2V2C0 .9.9 0 2 0h52c1.1 0 2 .9 2 2v16c0 1.1-.9 2-2 2z" fill="currentcolor"/><path d="M16.9 6.2h.4c.4 0 .6.2.6.5s-.2.5-.6.5-.6-.2-.6-.4h-.4c0 .5.4.8 1.1.8.6 0 1.1-.4 1.1-.8s-.3-.6-.6-.7c.3-.1.5-.3.5-.6 0-.4-.4-.8-1-.8s-1 .3-1 .8h.4c0-.3.2-.4.6-.4.3 0 .5.2.5.4 0 .3-.2.5-.5.5H17v.2zm2.7 1.3c.3 0 .5-.1.6-.3v.3h.4V6c0-.5-.3-.7-.8-.7s-.8.2-.9.6h.4c0-.2.2-.2.4-.2.3 0 .4.1.4.4v.2h-.6c-.5 0-.8.3-.8.6.1.3.4.6.9.6zm.1-.4c-.2 0-.4-.1-.4-.3 0-.2.1-.3.4-.3h.5v.2c0 .2-.2.4-.5.4zm3-1.4v-.4h-1.4v2.1h.4V5.7h1zm1.7-.4c-.3 0-.5.1-.7.4v-.4h-.4v2.8h.4v-1c.1.2.4.4.7.4.5 0 .9-.4.9-1.1 0-.7-.3-1.1-.9-1.1zm-.1 1.8c-.4 0-.6-.3-.6-.7 0-.4.2-.7.6-.7.4 0 .6.3.6.7 0 .4-.2.7-.6.7zM26 8.2c.4 0 .6-.2.8-.7l.8-2.2h-.4L26.7 7l-.5-1.7h-.5l.8 2.1v.1c-.1.2-.2.3-.4.3H26v.4c-.1 0 0 0 0 0zm2.9-.7c.5 0 .9-.3.9-.7 0-.2-.1-.4-.4-.5.2 0 .3-.2.3-.4 0-.4-.3-.6-.8-.6s-.8.2-.8.6h.4c0-.2.2-.3.4-.3.3 0 .4.1.4.3 0 .2-.1.3-.4.3h-.3v.3h.3c.3 0 .5.1.5.3 0 .2-.2.3-.5.3-.2 0-.4-.1-.5-.3H28c0 .5.4.7.9.7zm1.9-.1l1-1.5v1.5h.4V5.3h-.4l-1 1.5V5.3h-.4v2.1h.4zm3.7-2.1h-1.8v.4h.7v1.8h.4V5.7h.7v-.4zm1.9 1.6c-.1.2-.3.3-.5.3-.3 0-.6-.2-.6-.6h1.5v-.3c0-.7-.4-1.1-1-1.1s-1 .4-1 1.1c0 .7.4 1.1 1 1.1.5 0 .8-.2.9-.6h-.3zm-.5-1.3c.3 0 .5.2.5.6h-1.1c0-.4.2-.6.6-.6zm2.7 1.8h1c.5 0 .7-.2.7-.6 0-.3-.2-.5-.5-.5.2 0 .4-.2.4-.5s-.2-.5-.7-.5h-1v2.1zm.9-1.8c.2 0 .3.1.3.3 0 .2-.1.3-.4.3H39v-.6h.5zm-.1.9c.3 0 .4.1.4.3 0 .2-.1.3-.4.3H39v-.6h.4zm-12.1 5c-1 0-1.8.7-1.8 1.8 0 1 .8 1.8 1.8 1.8s1.8-.7 1.8-1.8c-.1-1.1-.9-1.8-1.8-1.8zm0 2.8c-.5 0-1-.4-1-1.1 0-.6.5-1.1 1-1.1s1 .4 1 1.1c0 .6-.5 1.1-1 1.1zm-3.9-2.8c-1 0-1.8.7-1.8 1.8 0 1 .8 1.8 1.8 1.8s1.8-.7 1.8-1.8-.8-1.8-1.8-1.8zm0 2.8c-.5 0-1-.4-1-1.1 0-.6.5-1.1 1-1.1s1 .4 1 1.1c0 .6-.5 1.1-1 1.1zM18.8 12v.7h1.8c-.1.4-.2.7-.4.9-.3.3-.7.5-1.4.5-1.1 0-2-.9-2-2s.9-2 2-2c.6 0 1 .2 1.3.5l.5-.5c-.4-.4-1-.8-1.9-.8-1.5 0-2.8 1.2-2.8 2.7 0 1.5 1.3 2.7 2.8 2.7.8 0 1.4-.3 1.9-.8s.6-1.2.6-1.8v-.5h-2.4zm18.8.6c-.1-.4-.6-1.1-1.5-1.1s-1.7.7-1.7 1.8c0 1 .7 1.8 1.8 1.8.8 0 1.3-.5 1.5-.8l-.7-.5c-.2.3-.5.5-.9.5s-.7-.2-.9-.5l2.4-1v-.2zm-2.4.6c0-.7.5-1 .9-1 .3 0 .6.2.7.4l-1.6.6zm-1.9 1.7h.8V9.7h-.8v5.2zM32 11.8c-.2-.2-.5-.4-1-.4-.9 0-1.7.8-1.7 1.8S30.1 15 31 15c.4 0 .8-.2.9-.4v.3c0 .7-.4 1-.9 1s-.8-.3-.9-.6l-.7.3c.2.5.7 1 1.6 1 .9 0 1.7-.5 1.7-1.8v-3.2H32v.2zm-.9 2.5c-.5 0-1-.4-1-1.1 0-.6.4-1.1 1-1.1.5 0 .9.5.9 1.1.1.6-.4 1.1-.9 1.1zm10.1-4.6h-1.9v5.2h.8v-2h1.1c.9 0 1.7-.6 1.7-1.6s-.8-1.6-1.7-1.6zm.1 2.5h-1.1v-1.8h1.1c.6 0 .9.5.9.9s-.4.9-.9.9zm4.7-.8c-.6 0-1.1.2-1.4.8l.7.3c.1-.3.4-.4.7-.4.4 0 .8.2.8.7v.1c-.1-.1-.4-.2-.8-.2-.7 0-1.5.4-1.5 1.2 0 .7.6 1.1 1.3 1.1.5 0 .8-.2 1-.5v.4h.7v-2c.1-.9-.6-1.5-1.5-1.5zm-.1 2.9c-.3 0-.6-.1-.6-.4 0-.4.4-.6.8-.6.3 0 .5.1.7.2 0 .4-.4.8-.9.8zm4.4-2.7l-.9 2.2-.9-2.2h-.8l1.4 3.1-.8 1.7h.8l2.1-4.9h-.9zm-6.9 3.3h.8V9.7h-.8v5.2z" fill="#fff"/><path d="M4.3 4.8c-.1.2-.2.4-.2.6v9.2c0 .3.1.5.2.6l5.1-5.1v-.2L4.3 4.8z" fill="#5bc8f3"/><linearGradient id="SVGID_2_" gradientUnits="userSpaceOnUse" x1="12.896" y1="10" x2="2.867" y2="10"><stop offset="0" stop-color="#ffdf00"/><stop offset=".409" stop-color="#fbbc0e"/><stop offset=".775" stop-color="#f9a418"/><stop offset="1" stop-color="#f89b1c"/></linearGradient><path d="M11.2 11.8l-1.7-1.7v-.2l1.7-1.7 2 1.2c.6.3.6.9 0 1.2l-2 1.2z" fill="#FFDF00"/><linearGradient id="SVGID_3_" gradientUnits="userSpaceOnUse" x1="10.293" y1="10.951" x2=".861" y2="20.384"><stop offset="0" stop-color="#ee4447"/><stop offset="1" stop-color="#c5166c"/></linearGradient><path d="M11.2 11.8L9.5 10l-5.2 5.2c.2.2.5.2.9 0l6-3.4" fill="#EE4447"/><linearGradient id="SVGID_4_" gradientUnits="userSpaceOnUse" x1=".819" y1="-.426" x2="8.52" y2="7.276"><stop offset="0" stop-color="#269e6f"/><stop offset=".051" stop-color="#2ba06f"/><stop offset=".466" stop-color="#53b26b"/><stop offset=".797" stop-color="#6bbd69"/><stop offset="1" stop-color="#74c168"/></linearGradient><path d="M11.2 8.2l-6-3.4c-.4-.2-.7-.2-.9 0L9.5 10l1.7-1.8z" fill="#269E6F"/></svg>
