<svg version="1.1" id="Layer_1" xmlns="http://www.w3.org/2000/svg" x="0" y="0" width="20" height="20" xml:space="preserve"><style>.st1{fill:#fff}</style><path d="M18 20H2a2 2 0 01-2-2V2a2 2 0 012-2h16a2 2 0 012 2v16a2 2 0 01-2 2z" fill="currentcolor"/><path class="st1" d="M10 4.261c1.87 0 2.09.007 2.829.041.682.031 1.053.145 1.3.241.326.127.56.279.804.524.245.245.397.478.524.805.096.246.21.617.24 1.3.035.738.042.959.042 2.828s-.007 2.09-.041 2.829c-.031.682-.145 1.053-.241 1.3-.127.326-.279.56-.524.804a2.169 2.169 0 01-.805.524c-.246.096-.617.21-1.3.24-.737.035-.959.042-2.828.042s-2.09-.007-2.829-.041c-.682-.031-1.053-.145-1.3-.241a2.169 2.169 0 01-.804-.524 2.169 2.169 0 01-.524-.805c-.096-.246-.21-.617-.24-1.3-.035-.738-.042-.959-.042-2.828s.007-2.09.041-2.829c.031-.682.145-1.053.241-1.3.127-.326.279-.56.524-.804.245-.245.478-.397.805-.524.246-.096.617-.21 1.3-.24.738-.035.959-.042 2.828-.042M10 3c-1.901 0-2.14.008-2.886.042-.745.034-1.254.152-1.7.325-.46.18-.85.419-1.24.808-.388.389-.628.78-.807 1.24-.173.445-.29.954-.325 1.699C3.008 7.86 3 8.099 3 10c0 1.901.008 2.14.042 2.886.034.745.152 1.254.325 1.7.18.46.419.85.808 1.24.389.388.78.628 1.24.807.445.173.954.29 1.699.325.747.034.985.042 2.886.042s2.14-.008 2.886-.042c.745-.034 1.254-.152 1.7-.325.46-.18.85-.419 1.24-.808.388-.389.628-.78.807-1.24.173-.445.29-.954.325-1.699.034-.747.042-.985.042-2.886s-.008-2.14-.042-2.886c-.034-.745-.152-1.254-.325-1.7a3.431 3.431 0 00-.808-1.24 3.449 3.449 0 00-1.24-.807c-.445-.173-.954-.29-1.699-.325C12.14 3.008 11.901 3 10 3z" fill="white"/><path class="st1" d="M10 6.405a3.595 3.595 0 100 7.19 3.595 3.595 0 000-7.19zm0 5.928a2.333 2.333 0 110-4.666 2.333 2.333 0 010 4.666z" fill="white"/><circle class="st1" cx="13.737" cy="6.263" r=".84" fill="white"/></svg>
