<svg version="1.1" id="Layer_1" xmlns="http://www.w3.org/2000/svg" x="0" y="0" viewBox="0 0 56 20" xml:space="preserve"><style/><path d="M54 20H2c-1.1 0-2-.9-2-2V2C0 .9.9 0 2 0h52c1.1 0 2 .9 2 2v16c0 1.1-.9 2-2 2z" fill="currentcolor"/><path d="M12.6 12.2s-.2.7-.7 1.5c-.4.6-.9 1.3-1.6 1.3-.7 0-.9-.4-1.7-.4-.8 0-1 .4-1.7.4s-1.2-.7-1.6-1.3c-.9-1.4-1.6-3.7-.7-5.3.4-.8 1.3-1.3 2.1-1.3.7 0 1.3.5 1.7.5.4 0 1.2-.6 2-.5.3 0 1.3.1 1.9 1 0 0-1.1.7-1.1 2 0 1.6 1.4 2.1 1.4 2.1zM9.9 6.3c.4-.4.6-1 .5-1.7-.5 0-1.1.4-1.5.8-.3.4-.6 1-.5 1.6.6 0 1.2-.3 1.5-.7zm10.2 8.6h1L18.9 9h-1l-2.1 5.9h1l.5-1.6h2.2l.6 1.6zM18.4 10l.9 2.6h-1.8l.9-2.6zm5.4.6c-.6 0-1.1.3-1.4.8v-.7h-.9v5.7h.9v-2.1c.3.5.7.8 1.4.8 1.1 0 1.8-.9 1.8-2.2.1-1.4-.7-2.3-1.8-2.3zm-.2 3.6c-.7 0-1.1-.6-1.1-1.4 0-.9.5-1.4 1.1-1.4.7 0 1.1.6 1.1 1.4 0 .9-.4 1.4-1.1 1.4zm5-3.6c-.6 0-1.1.3-1.4.8v-.7h-.9v5.7h.9v-2.1c.3.5.7.8 1.4.8 1.1 0 1.8-.9 1.8-2.2 0-1.4-.7-2.3-1.8-2.3zm-.3 3.6c-.7 0-1.1-.6-1.1-1.4 0-.9.5-1.4 1.1-1.4.7 0 1.1.6 1.1 1.4.1.9-.4 1.4-1.1 1.4zm4.3-.9c.1 1.1.9 1.7 2.2 1.7 1.4 0 2.3-.7 2.3-1.8 0-.9-.5-1.3-1.7-1.6l-.6-.2c-.8-.2-1.1-.4-1.1-.9s.5-.9 1.2-.9 1.2.4 1.3.9h.8c0-1-.9-1.7-2.1-1.7-1.3 0-2.1.7-2.1 1.7 0 .8.5 1.3 1.6 1.6l.8.2c.8.2 1.1.5 1.1.9 0 .5-.5.9-1.3.9s-1.3-.4-1.4-1h-1zm5.6-3.7v1h-.6v.7h.6v2.5c0 .8.3 1.2 1.2 1.2h.5v-.7h-.3c-.4 0-.5-.2-.5-.5v-2.4h.8v-.7H39v-1h-.8zm4.2 5.4c1.3 0 2-.8 2-2.2 0-1.4-.8-2.2-2-2.2s-2 .9-2 2.2c-.1 1.3.7 2.2 2 2.2zm0-.7c-.7 0-1.1-.5-1.1-1.5 0-.9.4-1.5 1.1-1.5s1.1.5 1.1 1.5c0 .9-.4 1.5-1.1 1.5zm2.7.6h.9v-2.6c0-.6.4-1 .9-1 .2 0 .3 0 .4.1v-.8H47c-.5 0-.9.3-1 .8v-.7h-.8v4.2zm5.5-1.2c-.1.4-.5.6-1 .6-.7 0-1.2-.5-1.2-1.2V13h3v-.3c0-1.3-.7-2.1-1.9-2.1s-2 .9-2 2.2c0 1.3.8 2.2 2 2.2 1 0 1.7-.5 1.9-1.3h-.8zm-1.1-2.4c.6 0 1 .4 1.1 1.1h-2.1c0-.7.4-1.1 1-1.1zM16.9 6.2h.4c.4 0 .6.2.6.5s-.2.5-.6.5-.6-.2-.6-.4h-.4c0 .5.4.8 1.1.8.6 0 1.1-.4 1.1-.8s-.3-.6-.6-.7c.3-.1.5-.3.5-.6 0-.4-.4-.8-1-.8s-1 .3-1 .8h.4c0-.3.2-.4.6-.4.3 0 .5.2.5.4 0 .3-.2.5-.5.5H17v.2zm2.7 1.3c.3 0 .5-.1.6-.3v.3h.4V6c0-.5-.3-.7-.8-.7s-.8.2-.9.6h.4c0-.2.2-.2.4-.2.3 0 .4.1.4.4v.2h-.6c-.5 0-.8.3-.8.6.1.3.4.6.9.6zm.1-.4c-.2 0-.4-.1-.4-.3 0-.2.1-.3.4-.3h.5v.2c0 .2-.2.4-.5.4zm3-1.4v-.4h-1.4v2.1h.4V5.7h1zm1.7-.4c-.3 0-.5.1-.7.4v-.4h-.4v2.8h.4v-1c.1.2.4.4.7.4.5 0 .9-.4.9-1.1 0-.7-.3-1.1-.9-1.1zm-.1 1.8c-.4 0-.6-.3-.6-.7 0-.4.2-.7.6-.7.4 0 .6.3.6.7 0 .4-.2.7-.6.7zM26 8.2c.4 0 .6-.2.8-.7l.8-2.2h-.4L26.7 7l-.5-1.7h-.5l.8 2.1v.1c-.1.2-.2.3-.4.3H26v.4c-.1 0 0 0 0 0zm2.9-.7c.5 0 .9-.3.9-.7 0-.2-.1-.4-.4-.5.2 0 .3-.2.3-.4 0-.4-.3-.6-.8-.6s-.8.2-.8.6h.4c0-.2.2-.3.4-.3.3 0 .4.1.4.3 0 .2-.1.3-.4.3h-.3v.3h.3c.3 0 .5.1.5.3 0 .2-.2.3-.5.3-.2 0-.4-.1-.5-.3H28c0 .5.4.7.9.7zm1.9-.1l1-1.5v1.5h.4V5.3h-.4l-1 1.5V5.3h-.4v2.1h.4zm3.7-2.1h-1.8v.4h.7v1.8h.4V5.7h.7v-.4zm1.9 1.6c-.1.2-.3.3-.5.3-.3 0-.6-.2-.6-.6h1.5v-.3c0-.7-.4-1.1-1-1.1s-1 .4-1 1.1c0 .7.4 1.1 1 1.1.5 0 .8-.2.9-.6h-.3zm-.5-1.3c.3 0 .5.2.5.6h-1.1c0-.4.2-.6.6-.6zm2.7 1.8h1c.5 0 .7-.2.7-.6 0-.3-.2-.5-.5-.5.2 0 .4-.2.4-.5s-.2-.5-.7-.5h-1v2.1zm.9-1.8c.2 0 .3.1.3.3 0 .2-.1.3-.4.3H39v-.6h.5zm-.1.9c.3 0 .4.1.4.3 0 .2-.1.3-.4.3H39v-.6h.4z" fill="#fff"/></svg>
