<svg xmlns="http://www.w3.org/2000/svg" width="20" height="20"><path d="M18 20H2a2 2 0 01-2-2V2a2 2 0 012-2h16a2 2 0 012 2v16a2 2 0 01-2 2z" fill="currentcolor"/><path d="M16.67 6.412c.104-.326 0-.564-.46-.564h-1.526c-.386 0-.564.208-.667.43 0 0-.786 1.898-1.884 3.129-.355.356-.518.474-.711.474-.104 0-.237-.118-.237-.444v-3.04c0-.385-.12-.563-.445-.563H8.338c-.237 0-.386.178-.386.355 0 .371.549.46.608 1.498v2.254c0 .489-.089.578-.282.578-.519 0-1.779-1.913-2.535-4.092-.148-.43-.297-.593-.682-.593H3.519c-.445 0-.519.207-.519.43 0 .4.519 2.416 2.417 5.085 1.26 1.824 3.054 2.803 4.67 2.803.979 0 1.098-.223 1.098-.594V12.18c0-.445.089-.52.4-.52.222 0 .623.12 1.527.994 1.038 1.038 1.216 1.512 1.794 1.512h1.527c.445 0 .653-.222.534-.652-.133-.43-.637-1.053-1.29-1.794-.356-.415-.89-.875-1.053-1.097-.222-.297-.163-.415 0-.682-.014 0 1.854-2.64 2.047-3.53" fill="#fff"/></svg>
