<svg xmlns="http://www.w3.org/2000/svg" width="32" height="32"><path d="M28.082 6.036h-1.726V2.584H24.63v3.452h-1.899V2.584h-1.553v3.452H10.822V2.584H9.096v3.452H7.37V2.584H5.644v3.452H2.192v24.165h27.617V6.036h-1.726zm0 22.438H3.917V7.761h1.726v1.726h1.726V7.761h1.726v1.726h1.726V7.761h10.356v1.726h1.553V7.761h1.899v1.726h1.726V7.761h1.726v20.713zM5.644 11.214h6.904v1.726H5.644v-1.726zm0 3.452H7.37v1.726H5.644v-1.726zm3.452 0h1.726v1.726H9.096v-1.726zm3.452 0h1.726v1.726h-1.726v-1.726zm3.452 0h1.726v1.726H16v-1.726zm3.452 0h1.726v1.726h-1.726v-1.726zm3.452 0h3.452v1.726h-3.452v-1.726zm-17.26 3.452H7.37v1.726H5.644v-1.726zm3.452 0h1.726v1.726H9.096v-1.726zm3.452 0h1.726v1.726h-1.726v-1.726zm3.452 0h1.726v1.726H16v-1.726zm3.452 0h1.726v1.726h-1.726v-1.726zm3.452 0h3.452v1.726h-3.452v-1.726zM5.644 21.57H7.37v1.726H5.644V21.57zm3.452 0h1.726v1.726H9.096V21.57zm3.452 0h1.726v1.726h-1.726V21.57zm3.452 0h1.726v1.726H16V21.57zm3.452 0h1.726v1.726h-1.726V21.57zm3.452 0h3.452v1.726h-3.452V21.57zm-17.26 3.452H7.37v1.726H5.644v-1.726zm3.452 0h1.726v1.726H9.096v-1.726zm3.452 0h1.726v1.726h-1.726v-1.726z" fill="#999"/></svg>