<svg xmlns="http://www.w3.org/2000/svg" width="20" height="20"><path d="M18 20H2a2 2 0 01-2-2V2a2 2 0 012-2h16a2 2 0 012 2v16a2 2 0 01-2 2z" fill="currentcolor"/><path d="M17.666 6.218a1.986 1.986 0 00-1.415-1.39C15.003 4.5 10 4.5 10 4.5s-5.003 0-6.251.328a1.99 1.99 0 00-1.415 1.39C2 7.443 2 10 2 10s0 2.557.334 3.782a1.986 1.986 0 001.415 1.39C4.997 15.5 10 15.5 10 15.5s5.003 0 6.251-.328a1.986 1.986 0 001.415-1.39C18 12.557 18 10 18 10s0-2.557-.334-3.782zM8.364 12.32V7.68L12.545 10l-4.181 2.321z" fill="#fff"/></svg>
