<svg xmlns="http://www.w3.org/2000/svg" xmlns:xlink="http://www.w3.org/1999/xlink"><symbol id="icon-app" viewBox="0 0 56 20"><style/><path d="M54 20H2c-1.1 0-2-.9-2-2V2C0 .9.9 0 2 0h52c1.1 0 2 .9 2 2v16c0 1.1-.9 2-2 2z" fill="currentcolor"/><path d="M12.6 12.2s-.2.7-.7 1.5c-.4.6-.9 1.3-1.6 1.3-.7 0-.9-.4-1.7-.4-.8 0-1 .4-1.7.4s-1.2-.7-1.6-1.3c-.9-1.4-1.6-3.7-.7-5.3.4-.8 1.3-1.3 2.1-1.3.7 0 1.3.5 1.7.5.4 0 1.2-.6 2-.5.3 0 1.3.1 1.9 1 0 0-1.1.7-1.1 2 0 1.6 1.4 2.1 1.4 2.1zM9.9 6.3c.4-.4.6-1 .5-1.7-.5 0-1.1.4-1.5.8-.3.4-.6 1-.5 1.6.6 0 1.2-.3 1.5-.7zm10.2 8.6h1L18.9 9h-1l-2.1 5.9h1l.5-1.6h2.2l.6 1.6zM18.4 10l.9 2.6h-1.8l.9-2.6zm5.4.6c-.6 0-1.1.3-1.4.8v-.7h-.9v5.7h.9v-2.1c.3.5.7.8 1.4.8 1.1 0 1.8-.9 1.8-2.2.1-1.4-.7-2.3-1.8-2.3zm-.2 3.6c-.7 0-1.1-.6-1.1-1.4 0-.9.5-1.4 1.1-1.4.7 0 1.1.6 1.1 1.4 0 .9-.4 1.4-1.1 1.4zm5-3.6c-.6 0-1.1.3-1.4.8v-.7h-.9v5.7h.9v-2.1c.3.5.7.8 1.4.8 1.1 0 1.8-.9 1.8-2.2 0-1.4-.7-2.3-1.8-2.3zm-.3 3.6c-.7 0-1.1-.6-1.1-1.4 0-.9.5-1.4 1.1-1.4.7 0 1.1.6 1.1 1.4.1.9-.4 1.4-1.1 1.4zm4.3-.9c.1 1.1.9 1.7 2.2 1.7 1.4 0 2.3-.7 2.3-1.8 0-.9-.5-1.3-1.7-1.6l-.6-.2c-.8-.2-1.1-.4-1.1-.9s.5-.9 1.2-.9 1.2.4 1.3.9h.8c0-1-.9-1.7-2.1-1.7-1.3 0-2.1.7-2.1 1.7 0 .8.5 1.3 1.6 1.6l.8.2c.8.2 1.1.5 1.1.9 0 .5-.5.9-1.3.9s-1.3-.4-1.4-1h-1zm5.6-3.7v1h-.6v.7h.6v2.5c0 .8.3 1.2 1.2 1.2h.5v-.7h-.3c-.4 0-.5-.2-.5-.5v-2.4h.8v-.7H39v-1h-.8zm4.2 5.4c1.3 0 2-.8 2-2.2 0-1.4-.8-2.2-2-2.2s-2 .9-2 2.2c-.1 1.3.7 2.2 2 2.2zm0-.7c-.7 0-1.1-.5-1.1-1.5 0-.9.4-1.5 1.1-1.5s1.1.5 1.1 1.5c0 .9-.4 1.5-1.1 1.5zm2.7.6h.9v-2.6c0-.6.4-1 .9-1 .2 0 .3 0 .4.1v-.8H47c-.5 0-.9.3-1 .8v-.7h-.8v4.2zm5.5-1.2c-.1.4-.5.6-1 .6-.7 0-1.2-.5-1.2-1.2V13h3v-.3c0-1.3-.7-2.1-1.9-2.1s-2 .9-2 2.2c0 1.3.8 2.2 2 2.2 1 0 1.7-.5 1.9-1.3h-.8zm-1.1-2.4c.6 0 1 .4 1.1 1.1h-2.1c0-.7.4-1.1 1-1.1zM16.9 6.2h.4c.4 0 .6.2.6.5s-.2.5-.6.5-.6-.2-.6-.4h-.4c0 .5.4.8 1.1.8.6 0 1.1-.4 1.1-.8s-.3-.6-.6-.7c.3-.1.5-.3.5-.6 0-.4-.4-.8-1-.8s-1 .3-1 .8h.4c0-.3.2-.4.6-.4.3 0 .5.2.5.4 0 .3-.2.5-.5.5H17v.2zm2.7 1.3c.3 0 .5-.1.6-.3v.3h.4V6c0-.5-.3-.7-.8-.7s-.8.2-.9.6h.4c0-.2.2-.2.4-.2.3 0 .4.1.4.4v.2h-.6c-.5 0-.8.3-.8.6.1.3.4.6.9.6zm.1-.4c-.2 0-.4-.1-.4-.3 0-.2.1-.3.4-.3h.5v.2c0 .2-.2.4-.5.4zm3-1.4v-.4h-1.4v2.1h.4V5.7h1zm1.7-.4c-.3 0-.5.1-.7.4v-.4h-.4v2.8h.4v-1c.1.2.4.4.7.4.5 0 .9-.4.9-1.1 0-.7-.3-1.1-.9-1.1zm-.1 1.8c-.4 0-.6-.3-.6-.7 0-.4.2-.7.6-.7.4 0 .6.3.6.7 0 .4-.2.7-.6.7zM26 8.2c.4 0 .6-.2.8-.7l.8-2.2h-.4L26.7 7l-.5-1.7h-.5l.8 2.1v.1c-.1.2-.2.3-.4.3H26v.4c-.1 0 0 0 0 0zm2.9-.7c.5 0 .9-.3.9-.7 0-.2-.1-.4-.4-.5.2 0 .3-.2.3-.4 0-.4-.3-.6-.8-.6s-.8.2-.8.6h.4c0-.2.2-.3.4-.3.3 0 .4.1.4.3 0 .2-.1.3-.4.3h-.3v.3h.3c.3 0 .5.1.5.3 0 .2-.2.3-.5.3-.2 0-.4-.1-.5-.3H28c0 .5.4.7.9.7zm1.9-.1l1-1.5v1.5h.4V5.3h-.4l-1 1.5V5.3h-.4v2.1h.4zm3.7-2.1h-1.8v.4h.7v1.8h.4V5.7h.7v-.4zm1.9 1.6c-.1.2-.3.3-.5.3-.3 0-.6-.2-.6-.6h1.5v-.3c0-.7-.4-1.1-1-1.1s-1 .4-1 1.1c0 .7.4 1.1 1 1.1.5 0 .8-.2.9-.6h-.3zm-.5-1.3c.3 0 .5.2.5.6h-1.1c0-.4.2-.6.6-.6zm2.7 1.8h1c.5 0 .7-.2.7-.6 0-.3-.2-.5-.5-.5.2 0 .4-.2.4-.5s-.2-.5-.7-.5h-1v2.1zm.9-1.8c.2 0 .3.1.3.3 0 .2-.1.3-.4.3H39v-.6h.5zm-.1.9c.3 0 .4.1.4.3 0 .2-.1.3-.4.3H39v-.6h.4z" fill="#fff"/></symbol><symbol id="icon-Calendar2"><path d="M28.082 6.036h-1.726V2.584H24.63v3.452h-1.899V2.584h-1.553v3.452H10.822V2.584H9.096v3.452H7.37V2.584H5.644v3.452H2.192v24.165h27.617V6.036h-1.726zm0 22.438H3.917V7.761h1.726v1.726h1.726V7.761h1.726v1.726h1.726V7.761h10.356v1.726h1.553V7.761h1.899v1.726h1.726V7.761h1.726v20.713zM5.644 11.214h6.904v1.726H5.644v-1.726zm0 3.452H7.37v1.726H5.644v-1.726zm3.452 0h1.726v1.726H9.096v-1.726zm3.452 0h1.726v1.726h-1.726v-1.726zm3.452 0h1.726v1.726H16v-1.726zm3.452 0h1.726v1.726h-1.726v-1.726zm3.452 0h3.452v1.726h-3.452v-1.726zm-17.26 3.452H7.37v1.726H5.644v-1.726zm3.452 0h1.726v1.726H9.096v-1.726zm3.452 0h1.726v1.726h-1.726v-1.726zm3.452 0h1.726v1.726H16v-1.726zm3.452 0h1.726v1.726h-1.726v-1.726zm3.452 0h3.452v1.726h-3.452v-1.726zM5.644 21.57H7.37v1.726H5.644V21.57zm3.452 0h1.726v1.726H9.096V21.57zm3.452 0h1.726v1.726h-1.726V21.57zm3.452 0h1.726v1.726H16V21.57zm3.452 0h1.726v1.726h-1.726V21.57zm3.452 0h3.452v1.726h-3.452V21.57zm-17.26 3.452H7.37v1.726H5.644v-1.726zm3.452 0h1.726v1.726H9.096v-1.726zm3.452 0h1.726v1.726h-1.726v-1.726z" fill="#999"/></symbol><symbol id="icon-Expand"><path d="M5.333 11.333L16 22l10.667-10.667h-5.333l-5.333 5.333-5.333-5.333H5.335z"/></symbol><symbol id="icon-fb"><path d="M18 20H2a2 2 0 01-2-2V2a2 2 0 012-2h16a2 2 0 012 2v16a2 2 0 01-2 2z" fill="currentcolor"/><path d="M13.242 20v-7.288H15.7l.368-2.853h-2.825V8.042c0-.824.23-1.385 1.41-1.385l1.498-.001V4.112A20.153 20.153 0 0013.956 4c-2.172 0-3.658 1.325-3.658 3.76v2.1H7.85v2.852h2.448V20h2.944z" fill="white"/></symbol><symbol id="icon-gp" viewBox="0 0 56 20"><style/><linearGradient id="SVGID_1_" gradientUnits="userSpaceOnUse" x1="-76" y1="0" x2="-76.707" y2=".707"><stop offset="0" stop-color="#ee4447"/><stop offset="1" stop-color="#c5166c"/></linearGradient><path d="M54 20H2c-1.1 0-2-.9-2-2V2C0 .9.9 0 2 0h52c1.1 0 2 .9 2 2v16c0 1.1-.9 2-2 2z" fill="currentcolor"/><path d="M16.9 6.2h.4c.4 0 .6.2.6.5s-.2.5-.6.5-.6-.2-.6-.4h-.4c0 .5.4.8 1.1.8.6 0 1.1-.4 1.1-.8s-.3-.6-.6-.7c.3-.1.5-.3.5-.6 0-.4-.4-.8-1-.8s-1 .3-1 .8h.4c0-.3.2-.4.6-.4.3 0 .5.2.5.4 0 .3-.2.5-.5.5H17v.2zm2.7 1.3c.3 0 .5-.1.6-.3v.3h.4V6c0-.5-.3-.7-.8-.7s-.8.2-.9.6h.4c0-.2.2-.2.4-.2.3 0 .4.1.4.4v.2h-.6c-.5 0-.8.3-.8.6.1.3.4.6.9.6zm.1-.4c-.2 0-.4-.1-.4-.3 0-.2.1-.3.4-.3h.5v.2c0 .2-.2.4-.5.4zm3-1.4v-.4h-1.4v2.1h.4V5.7h1zm1.7-.4c-.3 0-.5.1-.7.4v-.4h-.4v2.8h.4v-1c.1.2.4.4.7.4.5 0 .9-.4.9-1.1 0-.7-.3-1.1-.9-1.1zm-.1 1.8c-.4 0-.6-.3-.6-.7 0-.4.2-.7.6-.7.4 0 .6.3.6.7 0 .4-.2.7-.6.7zM26 8.2c.4 0 .6-.2.8-.7l.8-2.2h-.4L26.7 7l-.5-1.7h-.5l.8 2.1v.1c-.1.2-.2.3-.4.3H26v.4c-.1 0 0 0 0 0zm2.9-.7c.5 0 .9-.3.9-.7 0-.2-.1-.4-.4-.5.2 0 .3-.2.3-.4 0-.4-.3-.6-.8-.6s-.8.2-.8.6h.4c0-.2.2-.3.4-.3.3 0 .4.1.4.3 0 .2-.1.3-.4.3h-.3v.3h.3c.3 0 .5.1.5.3 0 .2-.2.3-.5.3-.2 0-.4-.1-.5-.3H28c0 .5.4.7.9.7zm1.9-.1l1-1.5v1.5h.4V5.3h-.4l-1 1.5V5.3h-.4v2.1h.4zm3.7-2.1h-1.8v.4h.7v1.8h.4V5.7h.7v-.4zm1.9 1.6c-.1.2-.3.3-.5.3-.3 0-.6-.2-.6-.6h1.5v-.3c0-.7-.4-1.1-1-1.1s-1 .4-1 1.1c0 .7.4 1.1 1 1.1.5 0 .8-.2.9-.6h-.3zm-.5-1.3c.3 0 .5.2.5.6h-1.1c0-.4.2-.6.6-.6zm2.7 1.8h1c.5 0 .7-.2.7-.6 0-.3-.2-.5-.5-.5.2 0 .4-.2.4-.5s-.2-.5-.7-.5h-1v2.1zm.9-1.8c.2 0 .3.1.3.3 0 .2-.1.3-.4.3H39v-.6h.5zm-.1.9c.3 0 .4.1.4.3 0 .2-.1.3-.4.3H39v-.6h.4zm-12.1 5c-1 0-1.8.7-1.8 1.8 0 1 .8 1.8 1.8 1.8s1.8-.7 1.8-1.8c-.1-1.1-.9-1.8-1.8-1.8zm0 2.8c-.5 0-1-.4-1-1.1 0-.6.5-1.1 1-1.1s1 .4 1 1.1c0 .6-.5 1.1-1 1.1zm-3.9-2.8c-1 0-1.8.7-1.8 1.8 0 1 .8 1.8 1.8 1.8s1.8-.7 1.8-1.8-.8-1.8-1.8-1.8zm0 2.8c-.5 0-1-.4-1-1.1 0-.6.5-1.1 1-1.1s1 .4 1 1.1c0 .6-.5 1.1-1 1.1zM18.8 12v.7h1.8c-.1.4-.2.7-.4.9-.3.3-.7.5-1.4.5-1.1 0-2-.9-2-2s.9-2 2-2c.6 0 1 .2 1.3.5l.5-.5c-.4-.4-1-.8-1.9-.8-1.5 0-2.8 1.2-2.8 2.7 0 1.5 1.3 2.7 2.8 2.7.8 0 1.4-.3 1.9-.8s.6-1.2.6-1.8v-.5h-2.4zm18.8.6c-.1-.4-.6-1.1-1.5-1.1s-1.7.7-1.7 1.8c0 1 .7 1.8 1.8 1.8.8 0 1.3-.5 1.5-.8l-.7-.5c-.2.3-.5.5-.9.5s-.7-.2-.9-.5l2.4-1v-.2zm-2.4.6c0-.7.5-1 .9-1 .3 0 .6.2.7.4l-1.6.6zm-1.9 1.7h.8V9.7h-.8v5.2zM32 11.8c-.2-.2-.5-.4-1-.4-.9 0-1.7.8-1.7 1.8S30.1 15 31 15c.4 0 .8-.2.9-.4v.3c0 .7-.4 1-.9 1s-.8-.3-.9-.6l-.7.3c.2.5.7 1 1.6 1 .9 0 1.7-.5 1.7-1.8v-3.2H32v.2zm-.9 2.5c-.5 0-1-.4-1-1.1 0-.6.4-1.1 1-1.1.5 0 .9.5.9 1.1.1.6-.4 1.1-.9 1.1zm10.1-4.6h-1.9v5.2h.8v-2h1.1c.9 0 1.7-.6 1.7-1.6s-.8-1.6-1.7-1.6zm.1 2.5h-1.1v-1.8h1.1c.6 0 .9.5.9.9s-.4.9-.9.9zm4.7-.8c-.6 0-1.1.2-1.4.8l.7.3c.1-.3.4-.4.7-.4.4 0 .8.2.8.7v.1c-.1-.1-.4-.2-.8-.2-.7 0-1.5.4-1.5 1.2 0 .7.6 1.1 1.3 1.1.5 0 .8-.2 1-.5v.4h.7v-2c.1-.9-.6-1.5-1.5-1.5zm-.1 2.9c-.3 0-.6-.1-.6-.4 0-.4.4-.6.8-.6.3 0 .5.1.7.2 0 .4-.4.8-.9.8zm4.4-2.7l-.9 2.2-.9-2.2h-.8l1.4 3.1-.8 1.7h.8l2.1-4.9h-.9zm-6.9 3.3h.8V9.7h-.8v5.2z" fill="#fff"/><path d="M4.3 4.8c-.1.2-.2.4-.2.6v9.2c0 .3.1.5.2.6l5.1-5.1v-.2L4.3 4.8z" fill="#5bc8f3"/><linearGradient id="SVGID_2_" gradientUnits="userSpaceOnUse" x1="12.896" y1="10" x2="2.867" y2="10"><stop offset="0" stop-color="#ffdf00"/><stop offset=".409" stop-color="#fbbc0e"/><stop offset=".775" stop-color="#f9a418"/><stop offset="1" stop-color="#f89b1c"/></linearGradient><path d="M11.2 11.8l-1.7-1.7v-.2l1.7-1.7 2 1.2c.6.3.6.9 0 1.2l-2 1.2z" fill="#FFDF00"/><linearGradient id="SVGID_3_" gradientUnits="userSpaceOnUse" x1="10.293" y1="10.951" x2=".861" y2="20.384"><stop offset="0" stop-color="#ee4447"/><stop offset="1" stop-color="#c5166c"/></linearGradient><path d="M11.2 11.8L9.5 10l-5.2 5.2c.2.2.5.2.9 0l6-3.4" fill="#EE4447"/><linearGradient id="SVGID_4_" gradientUnits="userSpaceOnUse" x1=".819" y1="-.426" x2="8.52" y2="7.276"><stop offset="0" stop-color="#269e6f"/><stop offset=".051" stop-color="#2ba06f"/><stop offset=".466" stop-color="#53b26b"/><stop offset=".797" stop-color="#6bbd69"/><stop offset="1" stop-color="#74c168"/></linearGradient><path d="M11.2 8.2l-6-3.4c-.4-.2-.7-.2-.9 0L9.5 10l1.7-1.8z" fill="#269E6F"/></symbol><symbol id="icon-Home3" viewBox="0 0 32 32"><path d="M5.333 19.253v12.08h4v-10.48L16 15.333l6.667 5.52v10.48h4v-12.08L16 10.186zM16 2L1.333 14.573v4.187L16 6.187 30.667 18.76v-4.187z" fill="currentcolor"/></symbol><symbol id="icon-inst"><style>.st1{fill:#fff}</style><path d="M18 20H2a2 2 0 01-2-2V2a2 2 0 012-2h16a2 2 0 012 2v16a2 2 0 01-2 2z" fill="currentcolor"/><path class="st1" d="M10 4.261c1.87 0 2.09.007 2.829.041.682.031 1.053.145 1.3.241.326.127.56.279.804.524.245.245.397.478.524.805.096.246.21.617.24 1.3.035.738.042.959.042 2.828s-.007 2.09-.041 2.829c-.031.682-.145 1.053-.241 1.3-.127.326-.279.56-.524.804a2.169 2.169 0 01-.805.524c-.246.096-.617.21-1.3.24-.737.035-.959.042-2.828.042s-2.09-.007-2.829-.041c-.682-.031-1.053-.145-1.3-.241a2.169 2.169 0 01-.804-.524 2.169 2.169 0 01-.524-.805c-.096-.246-.21-.617-.24-1.3-.035-.738-.042-.959-.042-2.828s.007-2.09.041-2.829c.031-.682.145-1.053.241-1.3.127-.326.279-.56.524-.804.245-.245.478-.397.805-.524.246-.096.617-.21 1.3-.24.738-.035.959-.042 2.828-.042M10 3c-1.901 0-2.14.008-2.886.042-.745.034-1.254.152-1.7.325-.46.18-.85.419-1.24.808-.388.389-.628.78-.807 1.24-.173.445-.29.954-.325 1.699C3.008 7.86 3 8.099 3 10c0 1.901.008 2.14.042 2.886.034.745.152 1.254.325 1.7.18.46.419.85.808 1.24.389.388.78.628 1.24.807.445.173.954.29 1.699.325.747.034.985.042 2.886.042s2.14-.008 2.886-.042c.745-.034 1.254-.152 1.7-.325.46-.18.85-.419 1.24-.808.388-.389.628-.78.807-1.24.173-.445.29-.954.325-1.699.034-.747.042-.985.042-2.886s-.008-2.14-.042-2.886c-.034-.745-.152-1.254-.325-1.7a3.431 3.431 0 00-.808-1.24 3.449 3.449 0 00-1.24-.807c-.445-.173-.954-.29-1.699-.325C12.14 3.008 11.901 3 10 3z" fill="white"/><path class="st1" d="M10 6.405a3.595 3.595 0 100 7.19 3.595 3.595 0 000-7.19zm0 5.928a2.333 2.333 0 110-4.666 2.333 2.333 0 010 4.666z" fill="white"/><circle class="st1" cx="13.737" cy="6.263" r=".84" fill="white"/></symbol><symbol id="icon-ok"><path d="M18 20H2a2 2 0 01-2-2V2a2 2 0 012-2h16a2 2 0 012 2v16a2 2 0 01-2 2z" fill="currentcolor"/><g id="XMLID_6_"><path id="XMLID_8_" class="st1" d="M10 10.226a3.616 3.616 0 003.613-3.612C13.613 4.62 11.993 3 10 3S6.387 4.62 6.387 6.614A3.617 3.617 0 0010 10.226zm0-5.108c.825 0 1.496.67 1.496 1.496 0 .824-.671 1.495-1.496 1.495a1.498 1.498 0 01-1.496-1.495c0-.825.672-1.496 1.496-1.496z" fill="white"/><path id="XMLID_7_" class="st1" d="M11.462 13.173a6.76 6.76 0 002.098-.87 1.058 1.058 0 00-1.128-1.792 4.587 4.587 0 01-4.864 0 1.058 1.058 0 10-1.128 1.793 6.77 6.77 0 002.098.869l-2.02 2.02a1.058 1.058 0 001.497 1.497L10 14.705l1.986 1.985a1.057 1.057 0 101.496-1.497l-2.02-2.02z" fill="white"/></g></symbol><symbol id="icon-TFFollow"><path d="M31.467 15.6L19.6 3.733l-1.333 1.333 9.333 9.6H2v2h25.6l-9.333 9.6 1.333 1.467 11.867-12V15.6z" fill="#fff"/></symbol><symbol id="icon-vk"><path d="M18 20H2a2 2 0 01-2-2V2a2 2 0 012-2h16a2 2 0 012 2v16a2 2 0 01-2 2z" fill="currentcolor"/><path d="M16.67 6.412c.104-.326 0-.564-.46-.564h-1.526c-.386 0-.564.208-.667.43 0 0-.786 1.898-1.884 3.129-.355.356-.518.474-.711.474-.104 0-.237-.118-.237-.444v-3.04c0-.385-.12-.563-.445-.563H8.338c-.237 0-.386.178-.386.355 0 .371.549.46.608 1.498v2.254c0 .489-.089.578-.282.578-.519 0-1.779-1.913-2.535-4.092-.148-.43-.297-.593-.682-.593H3.519c-.445 0-.519.207-.519.43 0 .4.519 2.416 2.417 5.085 1.26 1.824 3.054 2.803 4.67 2.803.979 0 1.098-.223 1.098-.594V12.18c0-.445.089-.52.4-.52.222 0 .623.12 1.527.994 1.038 1.038 1.216 1.512 1.794 1.512h1.527c.445 0 .653-.222.534-.652-.133-.43-.637-1.053-1.29-1.794-.356-.415-.89-.875-1.053-1.097-.222-.297-.163-.415 0-.682-.014 0 1.854-2.64 2.047-3.53" fill="#fff"/></symbol><symbol id="icon-ytb"><path d="M18 20H2a2 2 0 01-2-2V2a2 2 0 012-2h16a2 2 0 012 2v16a2 2 0 01-2 2z" fill="currentcolor"/><path d="M17.666 6.218a1.986 1.986 0 00-1.415-1.39C15.003 4.5 10 4.5 10 4.5s-5.003 0-6.251.328a1.99 1.99 0 00-1.415 1.39C2 7.443 2 10 2 10s0 2.557.334 3.782a1.986 1.986 0 001.415 1.39C4.997 15.5 10 15.5 10 15.5s5.003 0 6.251-.328a1.986 1.986 0 001.415-1.39C18 12.557 18 10 18 10s0-2.557-.334-3.782zM8.364 12.32V7.68L12.545 10l-4.181 2.321z" fill="#fff"/></symbol></svg>