<svg version="1.1" id="Слой_1" xmlns="http://www.w3.org/2000/svg" x="0" y="0" viewBox="0 0 1170 472.3" xml:space="preserve"><style>.st0{fill:none;stroke-width:2;stroke-linejoin:round;stroke-miterlimit:10}.st0,.st1,.st2{stroke:#05b}.st1{fill:none;stroke-linejoin:round;stroke-miterlimit:10}.st2{fill:#fff}.st2,.st3{stroke-width:2}.st3,.st4,.st5{fill:none;stroke:#05b}.st5{stroke-width:2;stroke-linecap:round;stroke-miterlimit:10}.st6{fill:#05b}.st9{fill:#63666a}.st10{stroke-linecap:round}.st10,.st11,.st15{fill:none;stroke:#05b}.st11{stroke-linecap:round;stroke-width:2}.st15{stroke-miterlimit:10}.st17{fill:#f2e7eb}</style><path class="st0" d="M467.7 427.8h203.8m-54.3-114.6L549 280.5l-68.2 32.7v114.6h136.4z"/><path class="st0" d="M603.6 401.6v-66.5H494.5v92.7h109.1M491.8 318.7h114.5v16.4H491.8z"/><path class="st1" d="M497.2 328.2h5.5m92.7 0h5.4m-95.4 0h2.7m-10.9 16.4h103.6m-103.6 8.2h103.6"/><circle class="st0" cx="549" cy="299.6" r="8.2"/><path class="st1" d="M606.3 399.1h10.9"/><path class="st0" d="M628.1 307.6l-79.1-38-79.1 38v10.9l79.1-38 79.1 38z"/><path class="st1" d="M496.7 442.8l12.8-12.9m-13.7 12.9l13.7-13.7m16.3 13.7l13.7-13.7m16.3 13.7l13.7-13.7m16.3 13.7l13.7-13.7m16.3 13.7l13.7-13.7m16.4 13.7l13.6-13.7M490.4 296.9v13.6m21.8-24.5v13.6m21.8-24.5v13.6m73.7 8.2v13.6M585.8 286v13.6M564 275.1v13.6"/><path class="st0" d="M497.5 364.2h103.6"/><path class="st1" d="M497.5 361.1h103.6"/><path class="st2" d="M509.2 402.6v-38.1c0-1.8 1.5-3.3 3.3-3.3h112.6c1.8 0 3.3 1.5 3.3 3.3v38.1H509.2z"/><path class="st3" d="M633.4 417.5h53.8c1.4 0 2.5-1.1 2.5-2.5s-1.1-2.5-2.5-2.5h-53.8"/><path class="st4" d="M680.6 404.5c-1.7 0-3.3-1.5-3.3-3.3s1.7-3.3 3.3-3.3v6.6z"/><path class="st3" d="M633.4 419.2v-43c0-1.8 1.5-3.3 3.3-3.3h21c2 0 7.9 11.1 8.8 16.6h18.2c1.8 0 3.3 1.5 3.3 3.3v19.9"/><path class="st4" d="M640.9 412.6v-33.9c0-.9.7-1.7 1.7-1.7h11.6l5 13.2v22.4m24.7-19.9v18.2"/><circle class="st2" cx="671.5" cy="417.5" r="9.9"/><circle class="st4" cx="671.5" cy="417.5" r="4.1"/><path class="st4" d="M661.6 377h-4.2l5 13.2h5.8"/><path class="st3" d="M628.5 417.5H511.2c-1.1 0-2-.9-2-2v-7.9h119.2l.1 9.9z"/><circle class="st2" cx="613.5" cy="417.5" r="9.9"/><circle class="st4" cx="613.5" cy="417.5" r="4.1"/><circle class="st2" cx="588.7" cy="417.5" r="9.9"/><circle class="st4" cx="588.7" cy="417.5" r="4.1"/><circle class="st2" cx="549" cy="417.5" r="9.9"/><circle class="st4" cx="549" cy="417.5" r="4.1"/><circle class="st2" cx="524.1" cy="417.5" r="9.9"/><circle class="st4" cx="524.1" cy="417.5" r="4.1"/><path class="st4" d="M515 402.6v5m8.3-5v5m8.3-5v5m8.3-5v5m8.2-5v5m8.3-5v5m8.3-5v5m8.3-5v5m8.3-5v5m8.2-5v5m8.3-5v5m8.3-5v5m8.3-5v5m8.3-5v5m21.5-14.1h5v3.3h-5zm21.5 0l-3.3 3.3m6.6-3.3l-3.3 3.3m6.6-3.3l-3.3 3.3m6.7-3.3l-3.4 3.3m-15.7-6.6h-13.2m-5.8-14.1v5m0 1.7v4.9m0 1.7v5"/><path class="st5" d="M582.1 173.9l-.1 27"/><path class="st6" d="M592.5 179.7l-10.4-3.7-10.7 3 10.7-10.1z"/><path class="st5" d="M582 237.5l.1 27.1"/><path class="st6" d="M582.3 269.6l-10.9-10.2 10.7 3 10.4-3.6z"/><path class="st5" d="M1070.8 137.4l-.1 66.9"/><path class="st6" d="M1081.3 143.2l-10.4-3.7-10.7 3 10.9-10.1z"/><path class="st5" d="M722.2 114.4l236.2.2"/><path class="st6" d="M715.5 115l9.5-11.5-2.4 10.8 4.3 10.2z"/><path class="st5" d="M237.1 299.2l208.1-112"/><path class="st6" d="M436.4 180.1l8.4 7.3 2.4 10.7 3.8-14.3z"/><path class="st5" d="M426.9 148l-208 111.9"/><path class="st6" d="M227.6 267.2l-8.4-7.5-2.4-10.7-3.8 14.4z"/><path d="M538 457.6h-5.8v11.3h-1.5v-12.6h8.8v12.6H538v-11.3zm4.1 5c0-2.1.4-3.7 1.3-4.8s2.2-1.7 3.8-1.7c.9 0 1.7.2 2.3.5s1.2.8 1.6 1.3c.4.6.7 1.3.9 2.1s.3 1.7.3 2.7c0 2.1-.4 3.7-1.3 4.8s-2.2 1.7-3.8 1.7c-.9 0-1.6-.2-2.3-.5-.6-.3-1.2-.8-1.6-1.3s-.7-1.3-.9-2.1c-.2-.8-.3-1.7-.3-2.7zm1.5 0c0 .7.1 1.4.2 2 .1.6.4 1.2.6 1.6s.7.9 1.1 1.1 1 .4 1.6.4c1.1 0 2-.4 2.6-1.3.6-.8 1-2.2 1-3.9 0-.7-.1-1.3-.2-2-.1-.6-.4-1.2-.7-1.7-.3-.5-.7-.8-1.1-1.1s-1-.4-1.6-.4c-1.1 0-2 .4-2.6 1.3s-.9 2.2-.9 4zm19.4 5.8c-.4.3-.8.5-1.4.6-.6.1-1.1.2-1.8.2-.8 0-1.5-.1-2.1-.4s-1.2-.7-1.7-1.2-.9-1.2-1.2-2-.4-1.8-.4-2.9c0-1.2.2-2.2.5-3s.7-1.5 1.3-2 1.1-.9 1.8-1.1 1.3-.4 2-.4 1.3 0 1.8.1.8.2 1.2.3l-.4 1.3c-.6-.3-1.4-.4-2.5-.4-.5 0-1 .1-1.5.3s-.9.5-1.3.9-.7.9-.9 1.6c-.2.7-.3 1.5-.3 2.4 0 .9.1 1.6.3 2.3s.5 1.2.9 1.6c.4.4.8.8 1.3 1s1.1.3 1.7.3c.5 0 1-.1 1.4-.2.4-.1.7-.2 1-.4l.3 1.1zm10.3-10.8h-3.9v11.3h-1.5v-11.3H564v-1.3h9.3v1.3zm7.9 7.8h-4.6l-1.3 3.5h-1.5l4.8-12.8h.7l4.8 12.8h-1.6l-1.3-3.5zm-4.2-1.3h3.7l-1.4-3.8-.4-1.9-.4 1.9-1.5 3.8zm16.3-4.9c0 .3 0 .6-.1.9-.1.3-.2.6-.4.9s-.4.5-.7.6-.7.3-1.1.4v.1c.4.1.7.2 1 .4s.6.4.9.7.5.6.6.9.2.8.2 1.3c0 .7-.1 1.2-.4 1.7s-.6.9-1.1 1.2-.9.5-1.5.7c-.6.1-1.1.2-1.7.2h-1.6c-.3 0-.6 0-.9-.1s-.6-.1-.8-.1v-12.3c.4-.1 1-.1 1.6-.2s1.2-.1 1.9-.1c.5 0 .9 0 1.4.1.5.1.9.2 1.3.4s.7.5 1 .9.4.8.4 1.4zm-5.2 2.5h.7c.3 0 .5 0 .7-.1.3-.1.6-.2.8-.3.3-.1.5-.2.7-.4s.4-.4.5-.7.2-.5.2-.8c0-.4-.1-.7-.2-.9s-.3-.4-.6-.6c-.3-.2-.5-.3-.9-.3-.3-.1-.7-.1-1-.1h-1.1c-.3 0-.6 0-.7.1v4h.9zm1 6.1c.4 0 .8 0 1.1-.1s.7-.2 1-.4c.3-.2.5-.4.7-.7.2-.3.2-.6.2-1 0-.5-.1-.9-.3-1.3-.2-.4-.5-.6-.8-.8-.3-.2-.7-.3-1.1-.3s-.8-.1-1.2-.1h-1.6v4.7c.1 0 .2 0 .4.1s.3 0 .5 0h.6c.2 0 .4-.1.5-.1zm7.1 1.1v-12.6h1.5v11.3h4.1v-11.3h1.5v11.3h4.1v-11.3h1.5v11.3h1.7v3.7h-1l-.3-2.3h-13.1zm24.2-8.5l.1-1.4h-.1l-.8 1.5-6.1 8.5h-.9v-12.6h1.5v8.6l-.1 1.4h.1l.8-1.5 6.1-8.6h.9v12.6h-1.5v-8.5zm6.8 2.7h-.8v5.8h-1.5v-12.6h1.5v5.9l.8-.3 4.2-5.6h1.7l-4.2 5.4-.8.6.9.7 4.6 5.9h-1.9l-4.5-5.8zm405.6-7.5c.5-.1.9-.2 1.5-.2s1-.1 1.6-.1c.6 0 1.1.1 1.7.2.6.1 1.1.3 1.6.6s.8.7 1.1 1.2.4 1.1.4 1.9c0 .8-.1 1.4-.4 1.9s-.6 1-1.1 1.3-1 .6-1.6.7c-.6.1-1.2.2-1.8.2h-1.4v4.8h-1.5v-12.5zm3 1h-.9c-.3 0-.5 0-.7.1v5.2h1.4c.4 0 .8 0 1.2-.1.4-.1.8-.2 1.1-.4.3-.2.6-.5.8-.9.2-.4.3-.8.3-1.4 0-.5-.1-.9-.3-1.2s-.4-.6-.7-.8-.6-.3-1-.4c-.4 0-.8-.1-1.2-.1zm6.5 5.2c0-2.1.4-3.7 1.3-4.8.9-1.1 2.2-1.7 3.8-1.7.9 0 1.7.2 2.3.5.6.3 1.2.8 1.6 1.3.4.6.7 1.3.9 2.1.2.8.3 1.7.3 2.7 0 2.1-.4 3.7-1.3 4.8-.9 1.1-2.2 1.7-3.8 1.7-.9 0-1.6-.2-2.3-.5-.6-.3-1.2-.8-1.6-1.3s-.7-1.3-.9-2.1c-.2-.9-.3-1.8-.3-2.7zm1.6 0c0 .7.1 1.4.2 2 .1.6.3 1.2.6 1.6s.7.9 1.1 1.1 1 .4 1.6.4c1.1 0 2-.4 2.6-1.3.6-.8 1-2.2 1-3.9 0-.7-.1-1.3-.2-2-.1-.6-.4-1.2-.7-1.7-.3-.5-.7-.8-1.1-1.1-.4-.3-1-.4-1.6-.4-1.1 0-2 .4-2.6 1.3-.6.9-.9 2.2-.9 4zm12.2.3v-1.3h2.1c.3-.1.6-.1.9-.3.3-.1.5-.3.7-.4.2-.2.4-.4.5-.6.1-.2.2-.5.2-.8 0-.4-.1-.7-.2-1-.1-.3-.3-.5-.5-.6s-.5-.3-.8-.3c-.3-.1-.6-.1-1-.1-.6 0-1.2 0-1.7.1s-.8.2-1.1.3l-.4-1.2c.2-.1.7-.3 1.3-.4.6-.1 1.3-.2 2.1-.2.5 0 1 .1 1.4.2s.9.3 1.2.5.7.6.9 1 .3.9.3 1.5-.2 1.2-.6 1.7c-.4.5-1 .9-1.8 1.2v.1c.8.1 1.5.4 2 1 .5.5.7 1.2.7 2.1 0 .7-.1 1.3-.4 1.8s-.6.9-1.1 1.2c-.4.3-.9.6-1.5.7-.6.2-1.1.2-1.7.2-.8 0-1.4 0-2-.1-.5-.1-.9-.2-1.3-.3l.4-1.3c.3.1.7.2 1.2.3.5.1 1.1.1 1.8.1.4 0 .7-.1 1.1-.2s.7-.3 1-.5c.3-.2.5-.5.7-.8.2-.3.3-.7.3-1.1 0-.8-.3-1.3-.8-1.7-.5-.4-1.2-.6-2.1-.6h-1.8zm16.3.2h-6v5.8h-1.5v-12.6h1.5v5.5h6v-5.5h1.5v12.6h-1.5v-5.8zm12.3-2.8l.1-1.4h-.1l-.8 1.5-6.1 8.5h-.9v-12.6h1.5v8.6l-.1 1.4h.1l.8-1.5 6.1-8.6h.9V468h-1.5v-8.5zm14.9 10.9h-1l-.3-2.3h-9v-12.6h1.5v11.3h5.7v-11.3h1.5v11.3h1.7v3.6zm8-5.8h-4.6l-1.3 3.5h-1.5l4.8-12.8h.7l4.8 12.8h-1.6l-1.3-3.5zm-4.2-1.3h3.7l-1.4-3.8-.4-1.9-.4 1.9-1.5 3.8zM536.8 93l.2-1.9h-.1l-.7 1.7-3.3 5.7h-.5l-3.5-5.7-.7-1.7h-.1l.3 1.9v8.5H527V88.8h1.1l3.9 6.5.6 1.4.6-1.4 3.8-6.4h1.2v12.6h-1.5V93zm10.5 4.9h-4.6l-1.3 3.5h-1.5l4.8-12.8h.7l4.8 12.8h-1.6l-1.3-3.5zm-4.2-1.3h3.7l-1.4-3.8-.4-1.9-.4 1.9-1.5 3.8zm8.7-7.6c.5-.1.9-.2 1.5-.2s1-.1 1.6-.1c.6 0 1.1.1 1.7.2.6.1 1.1.3 1.6.6s.8.7 1.1 1.2.4 1.1.4 1.9c0 .8-.1 1.4-.4 1.9s-.6 1-1.1 1.3-1 .6-1.6.7c-.6.1-1.2.2-1.8.2h-1.4v4.8h-1.5V89zm3.1 1h-.9c-.3 0-.5 0-.7.1v5.2h1.4c.4 0 .8 0 1.2-.1.4-.1.8-.2 1.1-.4.3-.2.6-.5.8-.9.2-.4.3-.8.3-1.4 0-.5-.1-.9-.3-1.2s-.4-.6-.7-.8-.6-.3-1-.4-.8-.1-1.2-.1zm9.3 5.6h-.8v5.8h-1.5V88.8h1.5v5.9l.8-.3 4.2-5.6h1.7l-4.2 5.4-.8.6.9.7 4.6 5.9h-1.9l-4.5-5.8zm16.4-2.7l.1-1.4h-.1l-.8 1.5-6.1 8.5h-.9V88.8h1.5v8.6l-.1 1.4h.1l.8-1.5 6.1-8.6h.9v12.6h-1.5v-8.4zm4.5-3.9c.5-.1.9-.2 1.5-.2s1-.1 1.6-.1c.6 0 1.1.1 1.7.2.6.1 1.1.3 1.6.6s.8.7 1.1 1.2.4 1.1.4 1.9c0 .8-.1 1.4-.4 1.9s-.6 1-1.1 1.3-1 .6-1.6.7c-.6.1-1.2.2-1.8.2h-1.4v4.8h-1.5V89zm3.1 1h-.9c-.3 0-.5 0-.7.1v5.2h1.4c.4 0 .8 0 1.2-.1.4-.1.8-.2 1.1-.4.3-.2.6-.5.8-.9.2-.4.3-.8.3-1.4 0-.5-.1-.9-.3-1.2s-.4-.6-.7-.8-.6-.3-1-.4-.8-.1-1.2-.1zm6.5 5.1c0-2.1.4-3.7 1.3-4.8s2.2-1.7 3.8-1.7c.9 0 1.7.2 2.3.5s1.2.8 1.6 1.3c.4.6.7 1.3.9 2.1s.3 1.7.3 2.7c0 2.1-.4 3.7-1.3 4.8s-2.2 1.7-3.8 1.7c-.9 0-1.6-.2-2.3-.5-.6-.3-1.2-.8-1.6-1.3s-.7-1.3-.9-2.1c-.2-.8-.3-1.7-.3-2.7zm1.6 0c0 .7.1 1.4.2 2 .1.6.3 1.2.6 1.6s.7.9 1.1 1.1 1 .4 1.6.4c1.1 0 2-.4 2.6-1.3.6-.8 1-2.2 1-3.9 0-.7-.1-1.3-.2-2-.1-.6-.4-1.2-.7-1.7-.3-.5-.7-.8-1.1-1.1s-1-.4-1.6-.4c-1.1 0-2 .4-2.6 1.3s-.9 2.3-.9 4zm18.8-3.4c0 .3 0 .6-.1.9-.1.3-.2.6-.4.9s-.4.5-.7.6-.7.3-1.1.4v.1c.4.1.7.2 1 .4s.6.4.9.7.5.6.6.9.2.8.2 1.3c0 .7-.1 1.2-.4 1.7s-.6.9-1.1 1.2-.9.5-1.5.7c-.6.1-1.1.2-1.7.2h-1.6c-.3 0-.6 0-.9-.1s-.6-.1-.8-.1V89c.4-.1 1-.1 1.6-.2s1.2-.1 1.9-.1c.5 0 .9 0 1.4.1.5.1.9.2 1.3.4s.7.5 1 .9.4 1 .4 1.6zm-5.2 2.5h.7c.3 0 .5 0 .7-.1.3-.1.6-.2.8-.3.3-.1.5-.2.7-.4s.4-.4.5-.7.2-.5.2-.8c0-.4-.1-.7-.2-.9s-.4-.4-.6-.6c-.3-.2-.5-.3-.9-.3-.3-.1-.7-.1-1-.1h-1.1c-.3 0-.6 0-.7.1v4h.9zm1 6.1c.4 0 .8 0 1.1-.1s.7-.2 1-.4c.3-.2.5-.4.7-.7.2-.3.2-.6.2-1 0-.5-.1-.9-.3-1.3-.2-.4-.5-.6-.8-.8-.3-.2-.7-.3-1.1-.3s-.8-.1-1.2-.1H609v4.7c.1 0 .2 0 .4.1s.3 0 .5 0h.6c.2 0 .3-.1.4-.1zm9.5-4.7h-.8v5.8H618V88.8h1.5v5.9l.8-.3 4.2-5.6h1.7l-4.2 5.4-.8.6.9.7 4.6 5.9H625l-4.6-5.8zm14.6 2.3h-4.6l-1.3 3.5h-1.5l4.8-12.8h.7l4.8 12.8h-1.6l-1.3-3.5zm-4.2-1.3h3.7l-1.4-3.8-.4-1.9-.4 1.9-1.5 3.8zm406.7 4.3c-.4.3-.8.5-1.4.6-.6.1-1.1.2-1.8.2-.8 0-1.5-.1-2.1-.4-.7-.3-1.2-.7-1.7-1.2s-.9-1.2-1.2-2-.4-1.8-.4-2.9c0-1.2.2-2.2.5-3s.7-1.5 1.3-2 1.1-.9 1.8-1.1 1.3-.4 2-.4 1.3 0 1.8.1.8.2 1.2.3l-.4 1.3c-.6-.3-1.4-.4-2.5-.4-.5 0-1 .1-1.5.3s-.9.5-1.3.9-.7.9-.9 1.6c-.2.7-.3 1.5-.3 2.4 0 .9.1 1.6.3 2.3s.5 1.2.9 1.6c.4.4.8.8 1.3 1s1.1.3 1.7.3c.5 0 1-.1 1.4-.2.4-.1.7-.2 1-.4l.3 1.1zm2.3-12.1h6.8v1.3h-5.3v3.8c.2 0 .5-.1.8-.1s.6-.1.9-.1c.6 0 1.2.1 1.7.2.6.1 1 .3 1.5.6s.8.7 1 1.1.4 1.1.4 1.8-.1 1.3-.4 1.9-.6.9-1 1.3c-.4.3-.9.6-1.5.7-.6.2-1.1.2-1.8.2h-1.5c-.3 0-.6 0-.8-.1s-.5-.1-.7-.1V88.8zm3.2 11.5c.4 0 .7-.1 1.1-.2.3-.1.7-.3.9-.5s.5-.5.6-.8c.1-.3.2-.7.2-1.1 0-.6-.1-1-.3-1.3-.2-.3-.4-.6-.7-.8-.3-.2-.6-.3-1-.4-.4-.1-.8-.1-1.2-.1h-1.5v5c.1 0 .2 0 .3.1s.3 0 .5 0h.5c.3.1.5.1.6.1zm14.4-7.4l.1-1.4h-.1l-.8 1.5-6.1 8.5h-.9V88.8h1.5v8.6l-.1 1.4h.1l.8-1.5 6.1-8.6h.9v12.6h-1.5v-8.4zm12.6 8c-.4.3-.8.5-1.4.6-.6.1-1.1.2-1.8.2-.8 0-1.5-.1-2.1-.4-.7-.3-1.2-.7-1.7-1.2s-.9-1.2-1.2-2-.4-1.8-.4-2.9c0-1.2.2-2.2.5-3s.7-1.5 1.3-2 1.1-.9 1.8-1.1 1.3-.4 2-.4 1.3 0 1.8.1.8.2 1.2.3l-.4 1.3c-.6-.3-1.4-.4-2.5-.4-.5 0-1 .1-1.5.3s-.9.5-1.3.9-.7.9-.9 1.6c-.2.7-.3 1.5-.3 2.4 0 .9.1 1.6.3 2.3s.5 1.2.9 1.6c.4.4.8.8 1.3 1s1.1.3 1.7.3c.5 0 1-.1 1.4-.2.4-.1.7-.2 1-.4l.3 1.1zm6.5-5.8c0-2.1.4-3.7 1.3-4.8.9-1.1 2.2-1.7 3.8-1.7.9 0 1.7.2 2.3.5.6.3 1.2.8 1.6 1.3.4.6.7 1.3.9 2.1.2.8.3 1.7.3 2.7 0 2.1-.4 3.7-1.3 4.8-.9 1.1-2.2 1.7-3.8 1.7-.9 0-1.6-.2-2.3-.5-.6-.3-1.2-.8-1.6-1.3s-.7-1.3-.9-2.1c-.2-.8-.3-1.7-.3-2.7zm1.6 0c0 .7.1 1.4.2 2 .1.6.4 1.2.6 1.6s.7.9 1.1 1.1 1 .4 1.6.4c1.1 0 2-.4 2.6-1.3.6-.8 1-2.2 1-3.9 0-.7-.1-1.3-.2-2-.1-.6-.4-1.2-.7-1.7-.3-.5-.7-.8-1.1-1.1-.4-.3-1-.4-1.6-.4-1.1 0-2 .4-2.6 1.3-.6 1-.9 2.3-.9 4zm16 4.9c-.2 0-.4.1-.7.1h-.8c-.6 0-1.1-.1-1.6-.3s-.9-.5-1.3-.9-.7-.9-.9-1.6-.3-1.4-.3-2.2c0-.8.1-1.5.3-2.2.2-.6.5-1.2.9-1.6.4-.4.9-.8 1.4-1s1.1-.4 1.8-.4h.6c.3 0 .4 0 .6.1v-1.6h1.5V90c.2-.1.5-.1.8-.1h.7c.6 0 1.1.1 1.6.3s.9.5 1.3.9.7.9.9 1.6c.2.6.3 1.4.3 2.2 0 .8-.1 1.6-.3 2.2-.2.6-.5 1.2-.9 1.6-.4.4-.9.8-1.4 1s-1.1.3-1.7.3h-.6c-.3 0-.5 0-.6-.1v1.8h-1.5V100zm-1.2-1.1h.8c.1 0 .2 0 .3-.1v-7.5c-.1 0-.3 0-.5-.1h-.6c-.4 0-.8.1-1.1.2-.4.2-.7.4-.9.7-.3.3-.5.7-.6 1.2-.1.5-.2 1.1-.2 1.7 0 .6.1 1.1.2 1.6s.3.9.6 1.2c.2.3.5.6.9.7.3.3.6.4 1.1.4zm3.9-7.7h-.7c-.3 0-.5 0-.6.1v7.5h1.1c.4 0 .8-.1 1.1-.2.4-.2.7-.4.9-.7.3-.3.5-.7.6-1.2.2-.5.2-1.1.2-1.7 0-.6-.1-1.1-.2-1.5-.1-.5-.3-.9-.5-1.2s-.5-.6-.9-.8c-.2-.2-.6-.3-1-.3zm16.6 12.5h-1l-.3-2.3h-8.8l-.3 2.3h-1V100h1.3c.1-.1.2-.4.4-.9s.4-1.2.6-2.1c.2-.9.4-2 .5-3.4.2-1.4.2-3 .2-4.9h6.7V100h1.6v3.7zm-3.2-3.6v-9.9h-3.8c0 1.3-.1 2.5-.2 3.6s-.2 2-.4 2.8c-.1.8-.3 1.5-.5 2.1-.2.6-.4 1.1-.6 1.5h5.5zM570 72.1c-.4.3-.8.5-1.4.6-.6.1-1.1.2-1.8.2-.8 0-1.5-.1-2.1-.4s-1.2-.7-1.7-1.2-.9-1.2-1.2-2-.4-1.8-.4-2.9c0-1.2.2-2.2.5-3s.7-1.5 1.3-2 1.1-.9 1.8-1.1 1.3-.4 2-.4 1.3 0 1.8.1.8.2 1.2.3l-.4 1.3c-.6-.3-1.4-.4-2.5-.4-.5 0-1 .1-1.5.3s-.9.5-1.3.9-.7.9-.9 1.6c-.2.7-.3 1.5-.3 2.4 0 .9.1 1.6.3 2.3s.5 1.2.9 1.6c.4.4.8.8 1.3 1s1.1.3 1.7.3c.5 0 1-.1 1.4-.2.4-.1.7-.2 1-.4l.3 1.1zm2.2-12.1h6.8v1.3h-5.3v3.8c.2 0 .5-.1.8-.1s.6-.1.9-.1c.6 0 1.2.1 1.7.2.6.1 1 .3 1.5.6s.8.7 1 1.1.4 1.1.4 1.8-.1 1.3-.4 1.9-.6.9-1 1.3c-.4.3-.9.6-1.5.7-.6.2-1.1.2-1.8.2h-1.5c-.3 0-.6 0-.8-.1s-.5-.1-.7-.1V60zm3.3 11.5c.4 0 .7-.1 1.1-.2.3-.1.7-.3.9-.5s.5-.5.6-.8.2-.7.2-1.1c0-.6-.1-1-.3-1.3-.2-.3-.4-.6-.7-.8-.3-.2-.6-.3-1-.4-.4-.1-.8-.1-1.2-.1h-1.5v5c.1 0 .2 0 .3.1s.3 0 .5 0h.5c.2 0 .4.1.6.1zm14.3-7.4l.1-1.4h-.1l-.8 1.5-6.1 8.5h-.9V60h1.5v8.6l-.1 1.4h.1l.8-1.5 6.1-8.6h.9v12.6h-1.5v-8.4zm12.6 8c-.4.3-.8.5-1.4.6-.6.1-1.1.2-1.8.2-.8 0-1.5-.1-2.1-.4s-1.2-.7-1.7-1.2-.9-1.2-1.2-2-.4-1.8-.4-2.9c0-1.2.2-2.2.5-3s.7-1.5 1.3-2 1.1-.9 1.8-1.1 1.3-.4 2-.4 1.3 0 1.8.1.8.2 1.2.3l-.4 1.3c-.6-.3-1.4-.4-2.5-.4-.5 0-1 .1-1.5.3s-.9.5-1.3.9-.7.9-.9 1.6c-.2.7-.3 1.5-.3 2.4 0 .9.1 1.6.3 2.3s.5 1.2.9 1.6c.4.4.8.8 1.3 1s1.1.3 1.7.3c.5 0 1-.1 1.4-.2.4-.1.7-.2 1-.4l.3 1.1zm-70.6 146.4h-.8v5.8h-1.5v-12.6h1.5v5.9l.8-.3 4.2-5.6h1.7l-4.2 5.4-.8.6.9.7 4.6 5.9h-1.9l-4.5-5.8zm8 1.4c0-1.5.3-2.7 1-3.5s1.7-1.2 2.9-1.2c.7 0 1.3.1 1.8.3s.9.5 1.2 1 .6.9.7 1.5.2 1.2.2 1.9c0 1.5-.3 2.7-1 3.5-.7.8-1.7 1.2-2.9 1.2-.7 0-1.3-.1-1.8-.3s-.9-.5-1.2-1-.6-.9-.7-1.5-.2-1.2-.2-1.9zm1.4 0c0 .5 0 .9.1 1.3s.2.8.4 1.1.4.6.8.8c.3.2.7.3 1.1.3 1.6 0 2.4-1.1 2.4-3.5 0-.5 0-.9-.1-1.3s-.2-.8-.4-1.1-.4-.6-.8-.7c-.3-.2-.7-.3-1.1-.3-1.5-.1-2.4 1.1-2.4 3.4zm16.7 6.8h-1l-.3-2.3h-6.8l-.3 2.3h-1v-3.5h1.1c.1-.1.2-.4.4-.7.2-.3.3-.8.5-1.4s.3-1.4.4-2.3.2-2 .2-3.3h5.4v7.7h1.3v3.5zm-2.8-3.6v-6.5h-2.7c0 .5-.1 1.1-.1 1.6-.1.6-.1 1.2-.2 1.8s-.2 1.2-.4 1.7-.3 1-.5 1.4h3.9zm6-4.3c.3 0 .6-.1.8-.1h.8c.6 0 1.1.1 1.5.2.4.1.8.3 1 .6s.4.5.5.9.1.7.1 1.1c0 1.1-.3 1.9-.9 2.4s-1.6.7-2.9.7c-.8 0-1.6 0-2.4-.1v-9h1.4v3.3zm0 4.3c.4.1.9.1 1.3.1.8 0 1.3-.1 1.6-.4s.4-.7.4-1.3c0-.5-.1-.9-.4-1.2s-.8-.5-1.5-.5h-.7c-.3 0-.5 0-.7.1v3.2zm6.2-7.7h1.4v9h-1.4v-9zm14.7 3.7l.1-1.1h-.1l-.7 1.2-4.1 5.3h-.8v-9h1.4v5.5l-.1 1.1h.1l.7-1.1 4.1-5.4h.9v9H582v-5.5zm5 1.3v-1.2h1.3c.2 0 .4 0 .6-.1l.6-.3c.2-.1.3-.3.4-.5s.2-.4.2-.6c0-.5-.2-.8-.5-1s-.8-.3-1.5-.3c-.5 0-.9.1-1.3.2s-.7.3-.9.4l-.4-1.1c.4-.2.8-.4 1.3-.5.5-.2 1.1-.2 1.7-.2 2 0 3 .7 3 2.2 0 .4-.1.8-.4 1.2s-.7.7-1.2.9v.1c.7.1 1.2.4 1.5.8s.4.9.4 1.5c0 .4-.1.7-.2 1.1s-.4.6-.7.8-.7.4-1.2.6c-.5.1-1 .2-1.6.2-.6 0-1.1-.1-1.5-.2s-.8-.2-1.1-.4l.4-1.2c.3.2.6.3 1 .4.4.1.8.1 1.3.1.7 0 1.3-.1 1.7-.4s.6-.6.6-1.2c0-.4-.2-.8-.5-1s-1-.4-1.8-.4H587zm15.6-2l.5 1.6h.1l.4-1.7 2.4-6.6h1.5l-3.2 8.2c-.3.9-.6 1.6-.9 2.1s-.5 1-.7 1.4c-.3.4-.5.6-.8.8-.3.2-.6.2-1.1.2-.4 0-.7 0-.9-.1s-.5-.2-.7-.3l.5-1.2c.2.1.5.2.7.3.2 0 .4.1.6.1.3 0 .6-.2.8-.5.2-.3.4-.9.6-1.5l-4.7-9.3h1.7l3.2 6.5zm13.7-5.3h-5.8v11.3H609v-12.6h8.8v12.6h-1.5v-11.3zm14.6 13.6h-1l-.3-2.3h-8.8l-.3 2.3h-1V223h1.3c.1-.1.2-.4.4-.9s.4-1.2.6-2.1c.2-.9.4-2 .5-3.4.2-1.4.2-3 .2-4.9h6.7V223h1.6v3.7zm-3.2-3.7v-9.9h-3.8c0 1.3-.1 2.5-.2 3.6s-.2 2-.4 2.8-.3 1.5-.5 2.1c-.2.6-.4 1.1-.6 1.5h5.5z"/><path class="st5" d="M1071.5 248.9l.1 27.1"/><path d="M1059.4 219.3v4.2c0 1.6.7 2.5 2.2 2.5.6 0 1.1-.1 1.6-.2s.9-.3 1.2-.6v-5.8h1.5V232h-1.5v-5.4c-.3.2-.7.4-1.3.5s-1.1.3-1.8.3c-.5 0-1-.1-1.4-.2-.4-.1-.8-.3-1.1-.6s-.5-.6-.7-1.1-.3-1-.3-1.7v-4.4h1.6zm16 11.9c-.4.3-.8.5-1.4.7s-1.1.3-1.7.3c-.7 0-1.3-.1-1.8-.3s-.9-.5-1.2-1-.6-.9-.7-1.5-.2-1.2-.2-1.9c0-1.5.3-2.7 1-3.5.7-.8 1.7-1.2 2.9-1.2.4 0 .8 0 1.2.1.4.1.8.3 1.1.5s.6.6.8 1.1.3 1.1.3 1.8c0 .4 0 .8-.1 1.3h-5.8c0 .5.1 1 .2 1.4s.3.8.5 1c.2.3.5.5.9.6s.8.2 1.3.2c.4 0 .8-.1 1.2-.2s.7-.3.9-.5l.6 1.1zm-3.1-7.2c-.7 0-1.3.2-1.7.6-.4.4-.7 1-.8 1.9h4.5c0-.9-.2-1.6-.5-1.9-.3-.4-.8-.6-1.5-.6zm8 3.9h-.8v4.1h-1.4v-9h1.4v4.1l.8-.3 2.9-3.8h1.6l-2.8 3.6-.8.6.9.7 3 4.1h-1.8l-3-4.1zM758.2 95.6h-.8v5.8h-1.5V88.8h1.5v5.9l.8-.3 4.2-5.6h1.7l-4.2 5.4-.8.6.9.7 4.6 5.9h-1.9l-4.5-5.8zm8 1.3c0-1.5.3-2.7 1-3.5s1.7-1.2 2.9-1.2c.7 0 1.3.1 1.8.3s.9.5 1.2 1 .6.9.7 1.5.2 1.2.2 1.9c0 1.5-.3 2.7-1 3.5-.7.8-1.7 1.2-2.9 1.2-.7 0-1.3-.1-1.8-.3s-.9-.5-1.2-1-.6-.9-.7-1.5-.2-1.2-.2-1.9zm1.5 0c0 .5 0 .9.1 1.3s.2.8.4 1.1.4.6.8.8c.3.2.7.3 1.1.3 1.6 0 2.4-1.1 2.4-3.5 0-.5 0-.9-.1-1.3s-.2-.8-.4-1.1-.4-.6-.8-.7c-.3-.2-.7-.3-1.1-.3-1.6 0-2.4 1.1-2.4 3.4zm16.6 6.8h-1l-.3-2.3h-6.8l-.3 2.3h-1v-3.5h1.1c.1-.1.2-.4.4-.7.2-.3.3-.8.5-1.4s.3-1.4.4-2.3.2-2 .2-3.3h5.4v7.7h1.3v3.5zm-2.7-3.5v-6.5h-2.7c0 .5-.1 1.1-.1 1.6-.1.6-.1 1.2-.2 1.8s-.2 1.2-.4 1.7-.3 1-.5 1.4h3.9zm6-4.3c.3 0 .6-.1.8-.1h.8c.6 0 1.1.1 1.5.2.4.1.8.3 1 .6s.4.5.5.9.1.7.1 1.1c0 1.1-.3 1.9-.9 2.4s-1.6.7-2.9.7c-.8 0-1.6 0-2.4-.1v-9h1.4v3.3zm0 4.3c.4.1.9.1 1.3.1.8 0 1.3-.1 1.6-.4s.4-.7.4-1.3c0-.5-.1-.9-.4-1.2s-.8-.5-1.5-.5h-.7c-.3 0-.5 0-.7.1v3.2zm6.2-7.8h1.4v9h-1.4v-9zm17 11.3h-1l-.3-2.3h-6.8l-.3 2.3h-1v-3.5h1.1c.1-.1.2-.4.4-.7.2-.3.3-.8.5-1.4s.3-1.4.4-2.3.2-2 .2-3.3h5.4v7.7h1.3v3.5zm-2.8-3.5v-6.5h-2.7c0 .5-.1 1.1-.1 1.6-.1.6-.1 1.2-.2 1.8s-.2 1.2-.4 1.7-.3 1-.5 1.4h3.9zm9.4-6.5h-2.6c0 .5-.1 1-.1 1.6 0 .6-.1 1.2-.2 1.8s-.2 1.1-.3 1.7-.3 1-.5 1.4c-.2.4-.4.7-.7 1s-.6.4-1 .4h-.6c-.2 0-.3-.1-.4-.1l.2-1.2c.1 0 .3.1.5.1s.5-.1.6-.3.4-.6.5-1.2.3-1.4.4-2.4c.1-1 .2-2.3.2-3.9h5.4v9h-1.4v-7.9zm8.7 4l-1.4.2-2.4 3.5h-1.7l2.2-3.1.7-.7c-.6-.1-1.2-.3-1.6-.8s-.7-1-.7-1.7c0-.5.1-1 .3-1.4s.5-.7.8-1 .8-.4 1.2-.5c.5-.1 1-.2 1.6-.2.4 0 .9 0 1.2.1.4.1.8.1 1.1.2v8.9H826v-3.5zm0-4.1c-.2-.1-.3-.1-.5-.1h-.5c-.8 0-1.4.1-1.8.4s-.6.7-.6 1.3c0 .5.2 1 .6 1.3s1 .4 1.7.4h1.1v-3.3zm15 7.2c-.4.3-.8.5-1.3.6s-1 .2-1.5.2c-.7 0-1.3-.1-1.8-.3s-.9-.5-1.2-1-.5-.9-.7-1.5-.2-1.2-.2-1.9c0-1.5.3-2.7 1-3.5s1.6-1.2 2.9-1.2c.6 0 1.1 0 1.5.1.4.1.8.2 1.1.4l-.4 1.2c-.3-.2-.6-.3-.9-.4s-.7-.1-1.1-.1c-1.7 0-2.6 1.2-2.6 3.5 0 .5 0 .9.1 1.3s.2.8.5 1.1.5.6.8.8c.3.2.8.3 1.3.3.4 0 .8-.1 1.2-.2s.6-.3.8-.5l.5 1.1zm7.4-7.1h-4v7.7h-1.4v-9h6.9v9h-1.4v-7.7zm9.8 2.4l.1-1.1h-.1l-.7 1.2-4.1 5.3h-.8v-9h1.4V98l-.1 1.1h.1l.7-1.1 4.1-5.4h.9v9h-1.4v-5.5zm10.4 4.7c-.4.3-.8.5-1.3.6s-1 .2-1.5.2c-.7 0-1.3-.1-1.8-.3s-.9-.5-1.2-1-.5-.9-.7-1.5-.2-1.2-.2-1.9c0-1.5.3-2.7 1-3.5s1.6-1.2 2.9-1.2c.6 0 1.1 0 1.5.1.4.1.8.2 1.1.4l-.4 1.2c-.3-.2-.6-.3-.9-.4s-.7-.1-1.1-.1c-1.7 0-2.6 1.2-2.6 3.5 0 .5 0 .9.1 1.3s.2.8.5 1.1.5.6.8.8c.3.2.8.3 1.3.3.4 0 .8-.1 1.2-.2s.6-.3.8-.5l.5 1.1zm1.8-7.7c.5-.3 1-.5 1.6-.6.6-.1 1.2-.2 1.9-.2.6 0 1.1.1 1.5.3.4.2.7.4.9.7s.3.6.4.9c.1.3.1.6.1 1 0 .7 0 1.4-.1 2.1 0 .7-.1 1.3-.1 1.9 0 .4 0 .9.1 1.3 0 .4.1.8.2 1.1h-1l-.4-1.3h-.1c-.1.2-.2.3-.4.5s-.4.3-.6.4c-.2.1-.5.2-.8.3s-.6.1-1 .1-.7-.1-1.1-.2c-.3-.1-.6-.3-.9-.5-.2-.2-.4-.5-.6-.8-.1-.3-.2-.7-.2-1.1 0-.5.1-1 .3-1.3s.5-.6.9-.8.9-.4 1.4-.5 1.1-.1 1.8-.1h1c0-.4.1-.7.1-1 0-.7-.1-1.1-.4-1.4s-.7-.4-1.4-.4h-.7c-.3 0-.5.1-.7.1-.2.1-.5.1-.7.2l-.6.3-.4-1zm2.6 7.2c.3 0 .6 0 .9-.1s.5-.2.7-.3c.2-.1.3-.3.5-.5.1-.2.2-.3.3-.5v-1.5h-1c-.4 0-.7 0-1.1.1s-.7.1-.9.2c-.3.1-.5.3-.6.5s-.2.4-.2.7c0 .4.1.8.4 1s.5.4 1 .4zm12-2.9H881v4h-1.4v-9h1.4v3.8h4.1v-3.8h1.4v9h-1.4v-4zm9.8-1.3l.1-1.1h-.1l-.7 1.2-4.1 5.3h-.8v-9h1.4V98l-.1 1.1h.1l.7-1.1 4.1-5.4h.9v9H895v-5.5zm8.7 1.6l-1.4.2-2.4 3.5h-1.7l2.2-3.1.7-.7c-.6-.1-1.2-.3-1.6-.8s-.7-1-.7-1.7c0-.5.1-1 .3-1.4s.5-.7.8-1 .8-.4 1.2-.5c.5-.1 1-.2 1.6-.2.4 0 .9 0 1.2.1.4.1.8.1 1.1.2v8.9h-1.4v-3.5zm0-4.1c-.2-.1-.3-.1-.5-.1h-.5c-.8 0-1.4.1-1.8.4s-.6.7-.6 1.3c0 .5.2 1 .6 1.3s1 .4 1.7.4h1.1v-3.3zm-98.9 104l-.7-.4-2.8 5.1-1.3-.7 6-11.1 1.3.7-2.8 5.2.8.2 6.4-2.9 1.5.8-6.3 2.8-.9.2.5 1.1 1.3 7.4-1.7-.9-1.3-7.5zm6.4 5c.7-1.3 1.6-2.2 2.6-2.6 1-.4 2-.3 3.2.3.6.3 1.1.7 1.4 1.1.3.4.5.9.6 1.4.1.5.1 1.1-.1 1.7s-.4 1.2-.7 1.8c-.7 1.3-1.6 2.2-2.6 2.6-1 .4-2 .3-3.1-.3-.6-.3-1.1-.7-1.4-1.1-.3-.4-.5-.9-.6-1.4-.1-.5-.1-1.1.1-1.7 0-.6.3-1.2.6-1.8zm1.3.7c-.2.4-.4.8-.5 1.2-.1.4-.2.8-.1 1.2 0 .4.1.7.3 1 .2.3.5.6.9.8 1.4.8 2.7.2 3.8-1.9.2-.4.4-.8.5-1.2.1-.4.2-.8.2-1.2s-.1-.7-.3-1c-.2-.3-.5-.6-.9-.8-1.5-.7-2.8-.1-3.9 1.9zm11.4 13.9l-.9-.5.9-2.1-6-3.2-1.3 1.9-.9-.5 1.7-3.1.9.5c.1-.1.4-.2.7-.4.3-.2.7-.6 1.1-1 .4-.5.9-1.1 1.4-1.8.5-.8 1.1-1.7 1.7-2.8l4.8 2.6-3.7 6.8 1.2.6-1.6 3zm-.7-4.4l3.1-5.7-2.4-1.3c-.3.4-.6.9-.9 1.4-.3.5-.7 1-1.1 1.5-.4.5-.8.9-1.1 1.3-.4.4-.8.7-1.1.9l3.5 1.9zm7.3-1c.3.1.5.2.8.3s.5.2.7.3c.5.3 1 .6 1.3.9.3.3.5.6.6 1 .1.3.1.7.1 1-.1.3-.2.7-.4 1-.5 1-1.2 1.5-1.9 1.7-.8.1-1.7-.1-2.9-.8l-2.1-1.2 4.3-7.9 1.3.7-1.8 3zm-2.1 3.8c.4.3.7.5 1.1.7.7.4 1.2.5 1.6.4s.7-.4 1-.9c.2-.4.3-.8.2-1.3-.1-.4-.5-.8-1.1-1.1l-.6-.3c-.2-.1-.4-.2-.6-.2l-1.6 2.7zm9.2-3.8l1.3.7-4.3 7.9-1.3-.7 4.3-7.9zm11.1 10.2l.6-1-1.2.7-6.1 2.7-.7-.4 4.3-7.9 1.3.7-2.6 4.8-.6.9h.1l1.1-.7 6.1-2.8.8.4-4.3 7.9-1.3-.7 2.5-4.6zm3.8 3.5l.6-1 1.1.6c.2.1.4.2.6.2h.6c.2 0 .4-.1.6-.2.2-.1.3-.2.4-.4.2-.4.2-.8 0-1.1-.2-.3-.6-.6-1.1-.9-.4-.2-.8-.4-1.2-.4s-.7-.1-1-.1l.2-1.2c.4 0 .9 0 1.4.1.5.1 1 .3 1.6.6 1.8.9 2.3 2.1 1.6 3.4-.2.4-.5.7-.9.9s-.9.3-1.4.2v.1c.6.5.9.9.9 1.4.1.5 0 1-.3 1.5-.2.3-.4.6-.7.8-.3.2-.6.3-1 .4-.4.1-.8 0-1.3-.1s-1-.3-1.5-.6-1-.6-1.3-.9c-.3-.3-.6-.6-.8-.9l.9-.8c.2.3.4.5.7.8.3.3.7.5 1.1.7.6.3 1.2.5 1.7.5s.8-.3 1.1-.7c.2-.4.2-.8 0-1.2-.2-.4-.7-.8-1.4-1.2l-1.2-.5zm14.7 5.8l-.4 1.6h.1l1.1-1.3 5.3-4.6 1.3.7-6.7 5.7c-.7.6-1.3 1.1-1.8 1.5-.5.4-.9.7-1.3.9-.4.2-.7.3-1.1.3-.3 0-.7-.1-1-.3-.4-.2-.6-.4-.8-.5-.2-.2-.3-.4-.4-.6l1-.9c.2.2.3.4.5.5.2.1.3.2.5.3.3.2.6.1 1-.1s.8-.5 1.3-1.1l.3-10.4 1.5.8-.4 7.5zm14.6 1.8l-5.1-2.8-5.4 9.9-1.3-.7 6-11.1 7.7 4.2-6 11.1-1.3-.7 5.4-9.9zM888 252l-.9-.5.9-2.2-7.8-4.2-1.3 1.9-.9-.5 1.7-3.2 1.1.6c.1-.1.4-.3.8-.6s.9-.9 1.5-1.6c.6-.7 1.3-1.6 2.1-2.7s1.6-2.5 2.5-4.2l5.9 3.2-5.4 9.9 1.4.8-1.6 3.3zm-1-4.7l4.7-8.7-3.4-1.8c-.7 1.1-1.3 2.2-1.9 3-.6.9-1.1 1.6-1.7 2.3s-1 1.2-1.4 1.6c-.4.4-.8.8-1.2 1l4.9 2.6zm-601-3.5l.3.9c.1.3.1.6 0 1 0 .3-.2.6-.4.9-.2.3-.5.5-.8.8v.1c.3-.1.7-.2 1.1-.1.4 0 .8.1 1.1.2.3.1.7.3 1 .5.3.2.6.6.8 1 .3.6.4 1.1.4 1.7 0 .5-.2 1.1-.4 1.5-.2.5-.6.9-1 1.3s-.9.7-1.4 1l-.6.3c-.2.1-.5.3-.8.4s-.6.2-.8.4c-.3.1-.5.2-.8.3l-5.7-11c.4-.3.8-.6 1.3-.9.5-.3 1.1-.6 1.7-1 .4-.2.9-.4 1.3-.6.5-.2.9-.2 1.4-.2.5 0 .9.1 1.3.3s.7.7 1 1.2zm-3.4 4.6c.2-.1.4-.2.6-.4.3-.1.5-.3.6-.4l.6-.6c.2-.2.3-.4.4-.7.1-.3.1-.5.1-.8 0-.3-.1-.5-.2-.8-.2-.4-.4-.6-.6-.7s-.5-.2-.8-.2c-.3 0-.6 0-.9.1-.3.1-.6.2-.9.4-.4.2-.7.4-1 .5-.3.2-.5.3-.6.4l1.9 3.6.8-.4zm3.7 4.9c.3-.2.7-.4.9-.6.3-.2.5-.5.6-.8.2-.3.2-.6.2-.9 0-.3-.1-.7-.3-1-.2-.4-.5-.8-.9-1-.3-.2-.7-.3-1.1-.3-.4 0-.7.1-1.1.2-.4.1-.7.3-1.1.5l-1.4.7 2.2 4.2c.1 0 .2-.1.3-.1.1-.1.3-.1.5-.2s.3-.2.5-.2c.4-.3.5-.4.7-.5zm5.3-7.8c.2-.2.5-.3.7-.5.2-.1.4-.3.7-.4.5-.3 1-.5 1.5-.5.4-.1.8-.1 1.2 0s.6.3.9.5c.2.2.4.5.6.9.5 1 .6 1.8.3 2.5s-1.1 1.4-2.3 2c-.7.4-1.4.7-2.2 1l-4.2-8 1.3-.7 1.5 3.2zm2 3.8c.4-.1.8-.3 1.2-.5.7-.4 1.1-.7 1.2-1.1.1-.4.1-.8-.2-1.3-.2-.4-.5-.7-.9-.8-.4-.1-.9 0-1.6.3l-.6.3c-.2.1-.4.3-.5.4l1.4 2.7zm2-9.7l1.3-.7 4.2 8-1.3.7-4.2-8zm16 4.3l-.9.5-1.3-1.9-6 3.1.8 2.1-.9.5-1.6-3.1.9-.5v-.8c0-.4-.1-.9-.3-1.5-.2-.6-.4-1.4-.7-2.2-.3-.9-.8-1.9-1.3-3l4.8-2.5 3.6 6.9 1.2-.6 1.7 3zm-4.1-1.8l-3-5.7-2.4 1.3c.2.5.4 1 .7 1.5.2.6.4 1.1.6 1.7.2.6.3 1.1.4 1.7.1.5.2 1 .2 1.5l3.5-2zm.6-8.3c.3-.5.7-.9 1.1-1.3.5-.4 1-.8 1.6-1.1.5-.3 1-.4 1.4-.5.4 0 .8 0 1.1.2.3.1.6.3.8.6.2.3.4.5.5.8.3.6.6 1.3.9 1.9.3.6.6 1.2.9 1.7.2.4.4.8.6 1.1.2.3.4.6.7.9l-.9.5-.9-.9h-.1c0 .2-.1.4-.1.6-.1.2-.2.4-.3.7-.1.2-.3.4-.6.6s-.5.4-.9.6c-.3.2-.7.3-1 .3-.3 0-.7 0-1-.1-.3-.1-.6-.2-.9-.4-.3-.2-.5-.5-.7-.8-.2-.5-.4-.9-.3-1.3 0-.4.2-.8.4-1.2.2-.4.6-.7 1-1.1s1-.7 1.5-1c.1-.1.3-.2.4-.2.1-.1.3-.1.5-.2-.1-.3-.3-.6-.4-.9-.3-.6-.6-.9-1-1-.4-.1-.8 0-1.5.3l-.6.3c-.2.1-.4.3-.6.4-.2.2-.4.3-.5.5-.2.2-.3.3-.4.5l-.7-.5zm5.6 5.2c.3-.2.5-.3.7-.5.2-.2.3-.4.4-.6.1-.2.2-.4.2-.6v-.6l-.7-1.3c-.2.1-.3.1-.5.2s-.3.2-.5.2l-.9.6c-.3.2-.5.4-.7.6-.2.2-.3.5-.4.7 0 .3 0 .5.1.8.2.4.5.6.9.7s1 0 1.4-.2zm2.9-10.5l1.1 2.2c.1.3.3.5.5.7.2.2.3.4.5.5.2.1.4.2.6.2.2 0 .5-.1.8-.2.5-.3.8-.5 1.1-.8s.4-.5.5-.7l-1.9-3.5 1.3-.7 4.2 8-1.3.7-1.8-3.3c-.1.2-.3.4-.6.7-.3.3-.7.6-1.3.9-.4.2-.8.3-1.1.4-.3.1-.7.1-1-.1-.3-.1-.6-.3-.9-.6-.3-.3-.6-.7-.8-1.2l-1.3-2.4 1.4-.8zm7.2-3c.3-.5.7-.9 1.1-1.3.5-.4 1-.8 1.6-1.1.5-.3 1-.4 1.4-.5.4 0 .8 0 1.1.2s.6.3.8.6c.2.3.4.5.5.8.3.6.6 1.3.9 1.9.3.6.6 1.2.9 1.7.2.4.4.8.6 1.1.2.3.4.6.7.9l-.9.5-.9-.9h-.1c0 .2-.1.4-.1.6s-.2.4-.3.7c-.1.2-.3.4-.6.6-.2.2-.5.4-.9.6-.3.2-.7.3-1 .3-.3 0-.7 0-1-.1-.3-.1-.6-.2-.9-.4-.3-.2-.5-.5-.7-.8-.2-.5-.4-.9-.3-1.3 0-.4.2-.8.4-1.2.2-.4.6-.7 1-1.1.4-.3 1-.7 1.5-1 .1-.1.3-.2.4-.2.1-.1.3-.1.5-.2-.1-.3-.3-.6-.4-.9-.3-.6-.6-.9-1-1-.4-.1-.8 0-1.5.3l-.6.3c-.2.1-.4.3-.6.4-.2.2-.4.3-.5.5-.2.2-.3.3-.4.5l-.7-.5zm5.6 5.2c.3-.2.5-.3.7-.5.2-.2.3-.4.4-.6.1-.2.2-.4.2-.6v-.6l-.7-1.3c-.2.1-.3.1-.5.2s-.3.2-.5.2l-.9.6c-.3.2-.5.4-.7.6-.2.2-.3.5-.4.7 0 .3 0 .5.1.8.2.4.5.6.9.7.6.1 1 0 1.4-.2zm10.7-8.9l-.7.4 1.9 3.6-1.3.7-4.2-8 1.3-.7 1.9 3.6.6-.6.8-4.7 1.4-.7-.8 4.5-.4.9 1.2.2 4.6 2.2-1.6.8-4.7-2.2zm5-3.1c-.7-1.3-1-2.5-.7-3.6.2-1 .9-1.8 2-2.4.6-.3 1.2-.5 1.7-.5s1.1.1 1.5.3.9.5 1.3 1c.4.4.8 1 1.1 1.6.7 1.3 1 2.5.7 3.6-.2 1-.9 1.8-2 2.4-.6.3-1.2.5-1.7.5s-1.1-.1-1.5-.3-.9-.5-1.3-1c-.5-.5-.8-1-1.1-1.6zm1.3-.7c.2.4.5.8.7 1.1s.6.6.9.8.7.3 1 .3c.4 0 .7-.1 1.1-.3 1.4-.7 1.6-2.1.6-4.2-.2-.4-.5-.8-.7-1.1s-.6-.6-.9-.8-.7-.3-1-.3c-.4 0-.7.1-1.1.3-1.5.7-1.7 2.1-.6 4.2zm17.8-1.7l-.9.5-1.3-1.9-6 3.1.8 2.1-.9.5-1.6-3.1.9-.5v-.8c0-.4-.1-.9-.3-1.5-.2-.6-.4-1.4-.7-2.2-.3-.9-.8-1.9-1.3-3l4.8-2.5 3.6 6.9 1.2-.6 1.7 3zm-4-1.9l-3-5.7-2.4 1.3c.2.5.4 1 .7 1.5.2.6.4 1.1.6 1.7.2.6.3 1.1.4 1.7.1.5.2 1 .2 1.5l3.5-2zm2-4.7c-.7-1.3-.9-2.5-.7-3.6.2-1 .9-1.8 2-2.4.6-.3 1.2-.5 1.7-.5s1.1.1 1.5.3c.5.2.9.5 1.3 1 .4.4.8 1 1.1 1.6.7 1.3 1 2.5.7 3.6-.2 1-.9 1.8-2 2.4-.6.3-1.2.5-1.7.5s-1.1-.1-1.5-.3c-.5-.2-.9-.5-1.3-1s-.8-1-1.1-1.6zm1.3-.7c.2.4.5.8.7 1.1.3.3.6.6.9.8s.7.3 1 .3c.4 0 .7-.1 1.1-.3 1.4-.7 1.6-2.1.6-4.2-.2-.4-.5-.8-.7-1.1-.3-.3-.6-.6-.9-.8s-.7-.3-1-.3c-.4 0-.7.1-1.1.3-1.5.7-1.6 2.1-.6 4.2zm5.6-8c.4-.2.7-.4 1.1-.7s.9-.5 1.5-.8c1.1-.6 1.9-.8 2.5-.7.6.1 1.1.5 1.5 1.1.2.4.3.8.2 1.3s-.3.9-.7 1.4v.1c.7-.2 1.2-.2 1.7 0 .4.2.8.5 1.1 1.1.4.8.5 1.6.1 2.3-.4.7-1.2 1.3-2.4 2-.4.2-.9.4-1.3.6s-.8.3-1.2.5l-4.1-8.2zm4.6 1.8c.2-.1.4-.2.5-.4.1-.2.3-.3.3-.5.1-.2.1-.4.1-.6 0-.2 0-.4-.1-.6-.2-.4-.5-.6-.8-.7-.3 0-.8.1-1.5.5-.3.2-.6.3-.8.4-.2.1-.4.2-.5.3l1.2 2.3 1.6-.7zm.3 4.4l.6-.3c.2-.1.4-.2.7-.3.7-.4 1.2-.8 1.4-1.1.2-.4.2-.8 0-1.3-.2-.4-.5-.6-.9-.7-.4-.1-1 .1-1.7.5l-1.4.7 1.3 2.5z"/><path class="st5" d="M732.8 187.6l208 112"/><path class="st6" d="M726.9 184.2l3.8 14.4 2.4-10.7 8.4-7.4z"/><path d="M268.1 204.1l-.6-1.1.2-.1c.1-.1.2-.1.4-.2.1-.1.3-.2.4-.2.1-.1.3-.2.4-.2.1-.1.2-.1.3-.2.3-.2.5-.4.7-.6.2-.2.3-.5.4-.7.1-.3.1-.5.1-.8s-.1-.5-.2-.8c-.2-.4-.4-.6-.6-.8-.2-.2-.5-.3-.8-.3-.3 0-.6 0-.9.1-.3.1-.6.2-.9.4-.6.3-1 .6-1.4.9-.4.3-.6.6-.8.8l-.9-.9 1-1c.5-.4 1.1-.8 1.8-1.2.4-.2.9-.4 1.3-.5.5-.1.9-.2 1.3-.1.4 0 .8.2 1.2.4s.7.6 1 1.2c.3.5.4 1.1.3 1.8-.1.7-.4 1.3-1 1.9v.1c.8-.3 1.5-.3 2.2-.1.7.2 1.2.7 1.6 1.5.3.6.5 1.2.5 1.8 0 .6-.1 1.1-.4 1.6-.2.5-.6.9-1 1.3s-.9.7-1.4 1c-.7.4-1.3.6-1.8.8-.5.2-.9.3-1.3.3l-.3-1.4c.3 0 .7-.1 1.2-.2s1-.4 1.7-.7l.9-.6c.3-.2.5-.5.6-.9.2-.3.2-.7.2-1 0-.4-.1-.7-.3-1.1-.4-.7-.8-1-1.5-1.1-.6-.1-1.3.1-2.1.4-.1.1-.3.1-.4.2-.1.1-.2.1-.4.2l-.7.1zm6.4-6c.3-.5.7-.9 1.1-1.3.5-.4 1-.8 1.6-1.1.5-.3 1-.4 1.4-.5.4 0 .8 0 1.1.2.3.1.6.3.8.6.2.3.4.5.5.8.3.6.6 1.3.9 1.9.3.6.6 1.2.9 1.7.2.4.4.8.6 1.1.2.3.4.6.7.9l-.9.5-.9-.9h-.1c0 .2-.1.4-.1.6-.1.2-.2.4-.3.7-.1.2-.3.4-.6.6-.2.2-.5.4-.9.6-.3.2-.7.3-1 .3-.3 0-.7 0-1-.1-.3-.1-.6-.2-.9-.4-.3-.2-.5-.5-.7-.8-.2-.5-.4-.9-.3-1.3 0-.4.2-.8.4-1.2.2-.4.6-.7 1-1.1s1-.7 1.5-1c.1-.1.3-.2.4-.2.1-.1.3-.1.5-.2-.1-.3-.3-.6-.4-.9-.3-.6-.6-.9-1-1-.4-.1-.8 0-1.5.3l-.6.3c-.2.1-.4.3-.6.4-.2.2-.4.3-.5.5-.2.2-.3.3-.4.5l-.7-.5zm5.6 5.2c.3-.2.5-.3.7-.5.2-.2.3-.4.4-.6.1-.2.2-.4.2-.6v-.6l-.7-1.3c-.2.1-.3.1-.5.2s-.3.2-.5.2l-.9.6c-.3.2-.5.4-.7.6-.2.2-.3.5-.4.7s0 .5.1.8c.2.4.5.6.9.7.6.1 1 0 1.4-.2zm6.4-6.7l-.7.4 1.9 3.6-1.3.7-4.2-8 1.3-.7 1.9 3.6.6-.6.8-4.7 1.4-.7-.8 4.5-.4.9 1.2.2 4.6 2.2-1.6.8-4.7-2.2zm3.5-6.7c.3-.5.7-.9 1.1-1.3.5-.4 1-.8 1.6-1.1.5-.3 1-.4 1.4-.5.4 0 .8 0 1.1.2.3.1.6.3.8.6.2.3.4.5.5.8.3.6.6 1.3.9 1.9.3.6.6 1.2.9 1.7.2.4.4.8.6 1.1.2.3.4.6.7.9l-.9.5-.9-.9h-.1c0 .2-.1.4-.1.6-.1.2-.2.4-.3.7-.1.2-.3.4-.6.6-.2.2-.5.4-.9.6-.3.2-.7.3-1 .3-.3 0-.7 0-1-.1-.3-.1-.6-.2-.9-.4-.3-.2-.5-.5-.7-.8-.2-.5-.4-.9-.3-1.3 0-.4.2-.8.4-1.2s.6-.7 1-1.1 1-.7 1.5-1c.1-.1.3-.2.4-.2.1-.1.3-.1.5-.2-.1-.3-.3-.6-.4-.9-.3-.6-.6-.9-1-1-.4-.1-.8 0-1.5.3l-.6.3c-.2.1-.4.3-.6.4-.2.2-.4.3-.5.5-.2.2-.3.3-.4.5l-.7-.5zm5.6 5.2c.3-.2.5-.3.7-.5.2-.2.3-.4.4-.6.1-.2.2-.4.2-.6v-.6l-.7-1.3c-.2.1-.3.1-.5.2s-.3.2-.5.2l-.9.6c-.3.2-.5.4-.7.6-.2.2-.3.5-.4.7 0 .3 0 .5.1.8.2.4.5.6.9.7s1 0 1.4-.2zm5.2-6l-.5-1 1.1-.6c.2-.1.4-.2.5-.4.2-.2.3-.3.4-.5.1-.2.1-.4.1-.6 0-.2 0-.4-.1-.6-.2-.4-.5-.6-.9-.6s-.9.1-1.4.4c-.4.2-.8.5-1 .8-.3.3-.5.6-.6.8l-.9-.8c.2-.3.5-.7.9-1.1.4-.4.8-.7 1.4-1 1.8-.9 3-.7 3.7.6.2.4.3.8.2 1.3-.1.5-.3.9-.6 1.3v.1c.7-.2 1.2-.2 1.7 0 .4.2.8.6 1.1 1.1.2.3.3.7.3 1 0 .4-.1.7-.2 1.1-.2.4-.4.7-.8 1.1-.4.3-.8.7-1.4.9-.5.3-1 .5-1.4.6-.4.1-.8.1-1.1.2l-.2-1.2c.3 0 .7 0 1-.1.4-.1.8-.3 1.2-.5.6-.3 1.1-.7 1.3-1.1s.2-.8 0-1.3c-.2-.4-.5-.6-1-.7-.4-.1-1 .1-1.7.5l-1.1.3zm12.5-6.6l-.7.4 1.9 3.6-1.3.7-4.2-8 1.3-.7 1.9 3.6.6-.6.8-4.7 1.4-.7-.8 4.5-.4.9 1.2.2 4.6 2.2-1.6.8-4.7-2.2zm5-3.1c-.7-1.3-1-2.5-.7-3.6.2-1 .9-1.8 2-2.4.6-.3 1.2-.5 1.7-.5s1.1.1 1.5.3c.5.2.9.5 1.3 1s.8 1 1.1 1.6c.7 1.3 1 2.5.7 3.6-.2 1-.9 1.8-2 2.4-.6.3-1.2.5-1.7.5s-1.1-.1-1.5-.3-.9-.5-1.3-1c-.5-.4-.8-1-1.1-1.6zm1.3-.7c.2.4.5.8.7 1.1.3.3.6.6.9.8.3.2.7.3 1 .3.4 0 .7-.1 1.1-.3 1.4-.7 1.6-2.1.6-4.2-.2-.4-.5-.8-.7-1.1-.3-.3-.6-.6-.9-.8-.3-.2-.7-.3-1-.3-.4 0-.7.1-1.1.3-1.5.8-1.7 2.2-.6 4.2zm17.8-1.7l-.9.5-1.3-1.9-6 3.1.8 2.1-.9.5-1.6-3.1.9-.5v-.8c0-.4-.1-.9-.3-1.5s-.4-1.4-.7-2.2c-.3-.9-.8-1.9-1.3-3l4.8-2.5 3.6 6.9 1.2-.6 1.7 3zm-4-1.9l-3-5.7-2.4 1.3c.2.5.4 1 .7 1.5.2.6.4 1.1.6 1.7.2.6.3 1.1.4 1.7.1.5.2 1 .2 1.5l3.5-2zm3.2-6.6c.2-.2.5-.3.7-.5.2-.1.4-.3.7-.4.5-.3 1-.5 1.5-.5.4-.1.8-.1 1.2 0 .3.1.6.3.9.5s.4.5.6.9c.5 1 .6 1.8.3 2.5s-1.1 1.4-2.3 2c-.7.4-1.4.7-2.2 1l-4.2-8 1.3-.7 1.5 3.2zm2 3.9c.4-.1.8-.3 1.2-.5.7-.4 1.1-.7 1.2-1.1.1-.4.1-.8-.2-1.3-.2-.4-.5-.7-.9-.8-.4-.1-.9 0-1.6.3l-.6.3c-.2.1-.4.3-.5.4l1.4 2.7zm2-9.8l1.3-.7 4.2 8-1.3.7-4.2-8zM37.1 456.8h-5.8v11.3h-1.5v-12.6h8.8v12.6h-1.5v-11.3zm4.5-1.2c.5-.1.9-.2 1.5-.2s1-.1 1.6-.1c.6 0 1.1.1 1.7.2.6.1 1.1.3 1.6.6s.8.7 1.1 1.2.4 1.1.4 1.9c0 .8-.1 1.4-.4 1.9s-.6 1-1.1 1.3-1 .6-1.6.7c-.6.1-1.2.2-1.8.2h-1.4v4.8h-1.5v-12.5zm3.1 1h-.9c-.3 0-.5 0-.7.1v5.2h1.4c.4 0 .8 0 1.2-.1.4-.1.8-.2 1.1-.4.3-.2.6-.5.8-.9.2-.4.3-.8.3-1.4 0-.5-.1-.9-.3-1.2s-.4-.6-.7-.8-.6-.3-1-.4-.8-.1-1.2-.1zm6.5 5.2c0-2.1.4-3.7 1.3-4.8s2.2-1.7 3.8-1.7c.9 0 1.7.2 2.3.5s1.2.8 1.6 1.3c.4.6.7 1.3.9 2.1s.3 1.7.3 2.7c0 2.1-.4 3.7-1.3 4.8s-2.2 1.7-3.8 1.7c-.9 0-1.6-.2-2.3-.5-.6-.3-1.2-.8-1.6-1.3s-.7-1.3-.9-2.1c-.2-.9-.3-1.8-.3-2.7zm1.6 0c0 .7.1 1.4.2 2 .1.6.4 1.2.6 1.6s.7.9 1.1 1.1 1 .4 1.6.4c1.1 0 2-.4 2.6-1.3.6-.8 1-2.2 1-3.9 0-.7-.1-1.3-.2-2-.1-.6-.4-1.2-.7-1.7-.3-.5-.7-.8-1.1-1.1s-1-.4-1.6-.4c-1.1 0-2 .4-2.6 1.3s-.9 2.2-.9 4zm18.9-2.3l.1-1.4h-.1l-.8 1.5-6.1 8.5H64v-12.6h1.5v8.6l-.1 1.4h.1l.8-1.5 6.1-8.6h.9V468h-1.5v-8.5zm5.5 2.6v-1.3h2.1c.3-.1.6-.1.9-.3.3-.1.5-.3.7-.4.2-.2.4-.4.5-.6s.2-.5.2-.8c0-.4-.1-.7-.2-1s-.3-.5-.5-.6-.5-.3-.8-.3c-.3-.1-.6-.1-1-.1-.6 0-1.2 0-1.7.1s-.8.2-1.1.3l-.4-1.2c.2-.1.7-.3 1.3-.4s1.3-.2 2.1-.2c.5 0 1 .1 1.4.2s.9.3 1.2.5.7.6.9 1 .3.9.3 1.5-.2 1.2-.6 1.7-1 .9-1.8 1.2v.1c.8.1 1.5.4 2 1 .5.5.7 1.2.7 2.1 0 .7-.1 1.3-.4 1.8s-.6.9-1.1 1.2-.9.6-1.5.7-1.1.2-1.7.2c-.8 0-1.4 0-2-.1-.5-.1-.9-.2-1.3-.3l.4-1.3c.3.1.7.2 1.2.3.5.1 1.1.1 1.8.1.4 0 .7-.1 1.1-.2s.7-.3 1-.5c.3-.2.5-.5.7-.8s.3-.7.3-1.1c0-.8-.3-1.3-.8-1.7-.5-.4-1.2-.6-2.1-.6h-1.8zm16.4-3.8c0 .3 0 .6-.1.9-.1.3-.2.6-.4.9s-.4.5-.7.6-.7.3-1.1.4v.1c.4.1.7.2 1 .4s.6.4.9.7.5.6.6.9.2.8.2 1.3c0 .7-.1 1.2-.4 1.7s-.6.9-1.1 1.2-.9.5-1.5.7c-.6.1-1.1.2-1.7.2h-1.6c-.3 0-.6 0-.9-.1s-.6-.2-.8-.2v-12.3c.4-.1 1-.1 1.6-.2s1.2-.1 1.9-.1c.5 0 .9 0 1.4.1.5.1.9.2 1.3.4s.7.5 1 .9.4.9.4 1.5zm-5.2 2.5h.7c.3 0 .5 0 .7-.1.3-.1.6-.2.8-.3.3-.1.5-.2.7-.4s.4-.4.5-.7.2-.5.2-.8c0-.4-.1-.7-.2-.9s-.4-.4-.6-.6c-.3-.2-.5-.3-.9-.3-.3-.1-.7-.1-1-.1h-1.1c-.3 0-.6 0-.7.1v4h.9zm1 6.1c.4 0 .8 0 1.1-.1s.7-.2 1-.4c.3-.2.5-.4.7-.7.2-.3.2-.6.2-1 0-.5-.1-.9-.3-1.3-.2-.4-.5-.6-.8-.8-.3-.2-.7-.3-1.1-.3s-.8-.1-1.2-.1h-1.6v4.7c.1 0 .2 0 .4.1s.3 0 .5 0h.6c.2 0 .4-.1.5-.1zm6.6-5.1c0-2.1.4-3.7 1.3-4.8s2.2-1.7 3.8-1.7c.9 0 1.7.2 2.3.5s1.2.8 1.6 1.3c.4.6.7 1.3.9 2.1s.3 1.7.3 2.7c0 2.1-.4 3.7-1.3 4.8s-2.2 1.7-3.8 1.7c-.9 0-1.6-.2-2.3-.5-.6-.3-1.2-.8-1.6-1.3s-.7-1.3-.9-2.1c-.2-.9-.3-1.8-.3-2.7zm1.6 0c0 .7.1 1.4.2 2 .1.6.4 1.2.6 1.6s.7.9 1.1 1.1 1 .4 1.6.4c1.1 0 2-.4 2.6-1.3.6-.8 1-2.2 1-3.9 0-.7-.1-1.3-.2-2-.1-.6-.4-1.2-.7-1.7-.3-.5-.7-.8-1.1-1.1s-1-.4-1.6-.4c-1.1 0-2 .4-2.6 1.3s-.9 2.2-.9 4zm21.2 8.6h-1l-.3-2.3h-8.8l-.3 2.3h-1v-3.7h1.3c.1-.1.2-.4.4-.9s.4-1.2.6-2.1c.2-.9.4-2 .5-3.4.2-1.4.2-3 .2-4.9h6.7v11.3h1.6v3.7zm-3.1-3.7v-9.9h-3.8c0 1.3-.1 2.5-.2 3.6s-.2 2-.4 2.8-.3 1.5-.5 2.1c-.2.6-.4 1.1-.6 1.5h5.5zm12.9-7.2l.1-1.4h-.1l-.8 1.5-6.1 8.5h-.9v-12.6h1.5v8.6l-.1 1.4h.1l.8-1.5 6.1-8.6h.9V468h-1.5v-8.5zm12.7-2.7h-3.9v11.3h-1.5v-11.3H132v-1.3h9.3v1.3zm1.8-1.3h6.9v1.3h-5.4v4.1h4.9v1.3h-4.9v4.5h5.5v1.3h-7v-12.5zm16.4 1.3h-3.8c-.1 2.4-.3 4.4-.5 6s-.5 2.8-.9 3.7c-.3.6-.6 1-.9 1.3s-.7.4-1.2.4h-.6c-.2 0-.3-.1-.4-.1l.2-1.3c.1 0 .2.1.4.1s.4-.1.6-.2c.2-.1.4-.4.6-.7.2-.3.3-.8.5-1.3.1-.5.3-1.2.4-2.1s.2-1.8.3-3c.1-1.1.1-2.5.2-4h6.7v12.6h-1.5v-11.4zm4.5-1.3h1.5v4.9h1.8c.6 0 1.1.1 1.7.2.5.1 1 .3 1.5.6s.8.7 1 1.2.4 1.1.4 1.8-.1 1.3-.4 1.9-.6 1-1 1.3-1 .6-1.6.8c-.6.2-1.2.3-1.9.3h-1.4c-.3 0-.5 0-.8-.1s-.5-.1-.7-.1v-12.8zm3.1 11.4c.4 0 .8-.1 1.2-.2.4-.1.7-.3 1-.5s.5-.5.7-.9.2-.8.2-1.2c0-.5-.1-.9-.3-1.3s-.4-.6-.7-.8-.6-.3-1-.4-.8-.1-1.2-.1h-.9c-.2 0-.3 0-.4.1s-.2 0-.3.1v5.1c.2 0 .4.1.7.1h1z"/><path class="st5" d="M647.5 146.9H512c-23.2 0-42-20.1-42-44.9 0-20.1 12.5-37.9 30.7-43.3 3.2-14.6 15.6-25 29.7-25 2.8 0 5.6.4 8.2 1.2 12.2-20.5 32.8-32.6 55.3-32.6 17.4 0 33.8 7.3 46.2 20.4 11.5 12.1 18.3 28.2 19.2 45.4 6.9 2.5 13 7.1 17.4 13.1 5.4 7.1 8.3 16.1 8.3 25.3.1 11.4-4.1 21.9-11.8 29.6-6.8 7-16 10.8-25.7 10.8zm284.9 282.4H701.7"/><path class="st6" d="M939.2 429.3l-10.3-10.8 3.2 10.6-3.8 10.5z"/><path class="st5" d="M450.1 429.3H213.9"/><path class="st6" d="M456.9 429.3l-10.1-10.8 3 10.6-3.8 10.5z"/><path d="M772.6 398.4l.5 1.6h.1l.4-1.7 2.4-6.6h1.5l-3.2 8.2c-.3.9-.6 1.6-.9 2.1s-.5 1-.7 1.4c-.3.4-.5.6-.8.8-.3.2-.6.2-1.1.2-.4 0-.7 0-.9-.1s-.5-.2-.7-.3l.5-1.2c.2.1.5.2.7.3.2 0 .4.1.6.1.3 0 .6-.2.8-.5.2-.3.4-.9.6-1.5l-4.7-9.3h1.7l3.2 6.5zm13.7-5.3h-5.8v11.3H779v-12.6h8.8v12.6h-1.5v-11.3zm14.6 13.6h-1l-.3-2.3h-8.8l-.3 2.3h-1V403h1.3c.1-.1.2-.4.4-.9s.4-1.2.6-2.1c.2-.9.4-2 .5-3.4.2-1.4.2-3 .2-4.9h6.7V403h1.6v3.7zm-3.2-3.6v-9.9h-3.8c0 1.3-.1 2.5-.2 3.6s-.2 2-.4 2.8-.3 1.5-.5 2.1c-.2.6-.4 1.1-.6 1.5h5.5zm9.9-7.7c.4 0 .9-.1 1.3-.1s1-.1 1.7-.1c1.2 0 2 .2 2.6.5.5.4.8.9.8 1.7 0 .4-.1.8-.4 1.2s-.7.7-1.2.9v.1c.7.1 1.2.4 1.5.7.3.4.4.8.4 1.4 0 .9-.3 1.6-1 2-.7.4-1.7.6-3 .6h-1.4c-.4 0-.9-.1-1.3-.1v-8.8zm3.2 3.8c.2 0 .4 0 .6-.1s.4-.2.5-.3c.2-.1.3-.3.4-.4s.2-.4.2-.5c0-.5-.1-.8-.4-1s-.8-.3-1.5-.3h-1.5v2.6h1.7zm-1.8 4c.2 0 .4 0 .7.1s.5 0 .8 0c.8 0 1.4-.1 1.8-.3s.6-.6.6-1.2c0-.4-.2-.8-.5-1.1s-.9-.4-1.8-.4H809v2.9zm20.6.7c-.4.3-.8.5-1.4.6-.6.1-1.1.2-1.8.2-.8 0-1.5-.1-2.1-.4s-1.2-.7-1.7-1.2-.9-1.2-1.2-2-.4-1.8-.4-2.9c0-1.2.2-2.2.5-3s.7-1.5 1.3-2 1.1-.9 1.8-1.1 1.3-.4 2-.4 1.3 0 1.8.1.8.2 1.2.3l-.4 1.3c-.6-.3-1.4-.4-2.5-.4-.5 0-1 .1-1.5.3s-.9.5-1.3.9-.7.9-.9 1.6c-.2.7-.3 1.5-.3 2.4 0 .9.1 1.6.3 2.3s.5 1.2.9 1.6c.4.4.8.8 1.3 1s1.1.3 1.7.3c.5 0 1-.1 1.4-.2.4-.1.7-.2 1-.4l.3 1.1zm2.2-12.1h6.8v1.3h-5.3v3.8c.2 0 .5-.1.8-.1s.6-.1.9-.1c.6 0 1.2.1 1.7.2.6.1 1 .3 1.5.6s.8.7 1 1.1.4 1.1.4 1.8-.1 1.3-.4 1.9-.6.9-1 1.3c-.4.3-.9.6-1.5.7-.6.2-1.1.2-1.8.2h-1.5c-.3 0-.6 0-.8-.1s-.5-.1-.7-.1v-12.5zm3.2 11.5c.4 0 .7-.1 1.1-.2.3-.1.7-.3.9-.5s.5-.5.6-.8.2-.7.2-1.1c0-.6-.1-1-.3-1.3-.2-.3-.4-.6-.7-.8-.3-.2-.6-.3-1-.4-.4-.1-.8-.1-1.2-.1h-1.5v5c.1 0 .2 0 .3.1s.3 0 .5 0h.5c.2 0 .5.1.6.1zm14.4-7.4l.1-1.4h-.1l-.8 1.5-6.1 8.5h-.9v-12.6h1.5v8.6l-.1 1.4h.1l.8-1.5 6.1-8.6h.9v12.6h-1.5v-8.5zm12.6 8c-.4.3-.8.5-1.4.6-.6.1-1.1.2-1.8.2-.8 0-1.5-.1-2.1-.4s-1.2-.7-1.7-1.2-.9-1.2-1.2-2-.4-1.8-.4-2.9c0-1.2.2-2.2.5-3s.7-1.5 1.3-2 1.1-.9 1.8-1.1 1.3-.4 2-.4 1.3 0 1.8.1.8.2 1.2.3l-.4 1.3c-.6-.3-1.4-.4-2.5-.4-.5 0-1 .1-1.5.3s-.9.5-1.3.9-.7.9-.9 1.6c-.2.7-.3 1.5-.3 2.4 0 .9.1 1.6.3 2.3s.5 1.2.9 1.6c.4.4.8.8 1.3 1s1.1.3 1.7.3c.5 0 1-.1 1.4-.2.4-.1.7-.2 1-.4l.3 1.1zm-574.5-5.5l.5 1.6h.1l.4-1.7 2.4-6.6h1.5l-3.2 8.2c-.3.9-.6 1.6-.9 2.1s-.5 1-.7 1.4c-.3.4-.5.6-.8.8-.3.2-.6.2-1.1.2-.4 0-.7 0-.9-.1s-.5-.2-.7-.3l.5-1.2c.2.1.5.2.7.3.2 0 .4.1.6.1.3 0 .6-.2.8-.5.2-.3.4-.9.6-1.5l-4.7-9.3h1.7l3.2 6.5zm13.7-5.3h-5.8v11.3h-1.5v-12.6h8.8v12.6h-1.5v-11.3zm14.6 13.6h-1l-.3-2.3h-8.8l-.3 2.3h-1V403h1.3c.1-.1.2-.4.4-.9s.4-1.2.6-2.1c.2-.9.4-2 .5-3.4.2-1.4.2-3 .2-4.9h6.7V403h1.6v3.7zm-3.2-3.6v-9.9h-3.8c0 1.3-.1 2.5-.2 3.6s-.2 2-.4 2.8-.3 1.5-.5 2.1c-.2.6-.4 1.1-.6 1.5h5.5zm9.9-7.7c.4 0 .9-.1 1.3-.1s1-.1 1.7-.1c1.2 0 2 .2 2.6.5.5.4.8.9.8 1.7 0 .4-.1.8-.4 1.2s-.7.7-1.2.9v.1c.7.1 1.2.4 1.5.7.3.4.4.8.4 1.4 0 .9-.3 1.6-1 2-.7.4-1.7.6-3 .6h-1.4c-.4 0-.9-.1-1.3-.1v-8.8zm3.2 3.8c.2 0 .4 0 .6-.1s.4-.2.5-.3c.2-.1.3-.3.4-.4s.2-.4.2-.5c0-.5-.1-.8-.4-1s-.8-.3-1.5-.3H324v2.6h1.7zm-1.8 4c.2 0 .4 0 .7.1s.5 0 .8 0c.8 0 1.4-.1 1.8-.3s.6-.6.6-1.2c0-.4-.2-.8-.5-1.1s-.9-.4-1.8-.4h-1.6v2.9zm20.6.7c-.4.3-.8.5-1.4.6-.6.1-1.1.2-1.8.2-.8 0-1.5-.1-2.1-.4s-1.2-.7-1.7-1.2-.9-1.2-1.2-2-.4-1.8-.4-2.9c0-1.2.2-2.2.5-3s.7-1.5 1.3-2 1.1-.9 1.8-1.1 1.3-.4 2-.4 1.3 0 1.8.1.8.2 1.2.3l-.4 1.3c-.6-.3-1.4-.4-2.5-.4-.5 0-1 .1-1.5.3s-.9.5-1.3.9-.7.9-.9 1.6c-.2.7-.3 1.5-.3 2.4 0 .9.1 1.6.3 2.3s.5 1.2.9 1.6c.4.4.8.8 1.3 1s1.1.3 1.7.3c.5 0 1-.1 1.4-.2.4-.1.7-.2 1-.4l.3 1.1zm2.2-12.1h6.8v1.3h-5.3v3.8c.2 0 .5-.1.8-.1s.6-.1.9-.1c.6 0 1.2.1 1.7.2.6.1 1 .3 1.5.6s.8.7 1 1.1.4 1.1.4 1.8-.1 1.3-.4 1.9-.6.9-1 1.3c-.4.3-.9.6-1.5.7-.6.2-1.1.2-1.8.2h-1.5c-.3 0-.6 0-.8-.1s-.5-.1-.7-.1v-12.5zm3.2 11.5c.4 0 .7-.1 1.1-.2.3-.1.7-.3.9-.5s.5-.5.6-.8.2-.7.2-1.1c0-.6-.1-1-.3-1.3-.2-.3-.4-.6-.7-.8-.3-.2-.6-.3-1-.4-.4-.1-.8-.1-1.2-.1H348v5c.1 0 .2 0 .3.1s.3 0 .5 0h.5c.2 0 .5.1.6.1zm14.4-7.4l.1-1.4h-.1l-.8 1.5-6.1 8.5h-.9v-12.6h1.5v8.6l-.1 1.4h.1l.8-1.5 6.1-8.6h.9v12.6h-1.5v-8.5zm12.6 8c-.4.3-.8.5-1.4.6-.6.1-1.1.2-1.8.2-.8 0-1.5-.1-2.1-.4s-1.2-.7-1.7-1.2-.9-1.2-1.2-2-.4-1.8-.4-2.9c0-1.2.2-2.2.5-3s.7-1.5 1.3-2 1.1-.9 1.8-1.1 1.3-.4 2-.4 1.3 0 1.8.1.8.2 1.2.3l-.4 1.3c-.6-.3-1.4-.4-2.5-.4-.5 0-1 .1-1.5.3s-.9.5-1.3.9-.7.9-.9 1.6c-.2.7-.3 1.5-.3 2.4 0 .9.1 1.6.3 2.3s.5 1.2.9 1.6c.4.4.8.8 1.3 1s1.1.3 1.7.3c.5 0 1-.1 1.4-.2.4-.1.7-.2 1-.4l.3 1.1z"/><path class="st5" d="M1126.7 124.5h-112.2c-10.5-.1-19-9.8-18.9-21.8 0-10.4 6.7-19.4 15.8-21.2.2-12.9 9.5-23.3 20.9-23.3 2.8 0 5.7.7 8.3 2 4.3-17.9 20.6-28.4 36.3-23.4 10.3 3.2 18.3 12.4 20.9 24.1 10.3-5.9 22.8-1.4 28.1 10.2 1.4 3.2 2.2 6.6 2.4 10.3 10.5.9 18.3 11.4 17.5 23.2-1 11.3-9.2 19.9-19.1 19.9z"/><g transform="translate(-90 -20)"><path d="M556.7 42.3h25.9c5.3 0 7.1.6 9.1 1.6 1.9 1.1 3.5 2.6 4.4 4.4 1.1 1.9 1.6 3.9 1.6 9.1v25.9c0 5.3-.6 7.1-1.6 9.1-1.1 1.9-2.6 3.5-4.4 4.4-1.9 1.1-3.9 1.5-9.1 1.5h-25.9c-5.3 0-7.1-.6-9.1-1.5-1.9-1.1-3.5-2.6-4.4-4.4-1.1-1.9-1.6-3.9-1.6-9.1V57.5c0-5.3.6-7.1 1.6-9.1 1.1-1.9 2.6-3.5 4.4-4.4 2-1.1 3.8-1.7 9.1-1.7z" fill="#eae60e" id="a"/></g><g transform="translate(-90 -20)"><path class="st9" d="M583.7 53.8c1.5 0 2.7 1.2 2.7 2.7v6.7h5.6v-6.7c0-4.6-3.7-8.3-8.2-8.3h-6.7v5.6h6.6z" id="M"/></g><g transform="translate(-90 -20)"><path class="st9" d="M586.4 84.4c0 1.5-1.2 2.7-2.7 2.7H577v5.6h6.7c4.6 0 8.2-3.6 8.2-8.2v-6.7h-5.6l.1 6.6z" id="N"/></g><g transform="translate(-90 -20)"><path class="st9" d="M552.9 56.3c0-1.5 1.2-2.7 2.7-2.7h6.7V48h-6.7c-4.6 0-8.2 3.7-8.2 8.3V63h5.6l-.1-6.7z" id="O"/></g><g transform="translate(-90 -20)"><path class="st9" d="M555.6 87.1c-1.5 0-2.7-1.2-2.7-2.7v-6.7h-5.6v6.7c0 4.6 3.7 8.2 8.2 8.2h6.7V87l-6.6.1z" id="P"/></g><g transform="translate(-90 -20)"><path class="st9" d="M566.5 83.7l-11.9-11.9 4-4 8 8L581 61.5l4 4-18.5 18.2z" id="Q"/></g><path class="st0" d="M153.6 403h-108c-7.9 0-14.3 6.4-14.3 14.3s6.4 14.3 14.3 14.3h108c7.9 0 14.3-6.4 14.3-14.3s-6.4-14.3-14.3-14.3z"/><path class="st1" d="M153.6 408.5h-108c-4.9 0-8.8 3.9-8.8 8.8s3.9 8.8 8.8 8.8h108c4.9 0 8.8-3.9 8.8-8.8s-4-8.8-8.8-8.8z"/><path class="st6" d="M151.4 415.1c1.2 0 2.2 1 2.2 2.2s-1 2.2-2.2 2.2-2.2-1-2.2-2.2.9-2.2 2.2-2.2m0-2c-2.3 0-4.2 1.9-4.2 4.2 0 2.3 1.9 4.2 4.2 4.2s4.2-1.9 4.2-4.2c0-2.3-1.9-4.2-4.2-4.2zm-101.4 2c1.2 0 2.2 1 2.2 2.2s-1 2.2-2.2 2.2-2.2-1-2.2-2.2 1-2.2 2.2-2.2m0-2c-2.3 0-4.2 1.9-4.2 4.2 0 2.3 1.9 4.2 4.2 4.2s4.2-1.9 4.2-4.2-1.9-4.2-4.2-4.2zm33.1 2c1.2 0 2.2 1 2.2 2.2s-1 2.2-2.2 2.2-2.2-1-2.2-2.2.9-2.2 2.2-2.2m0-2c-2.3 0-4.2 1.9-4.2 4.2 0 2.3 1.9 4.2 4.2 4.2s4.2-1.9 4.2-4.2c0-2.3-1.9-4.2-4.2-4.2zm37.4 2c1.2 0 2.2 1 2.2 2.2s-1 2.2-2.2 2.2-2.2-1-2.2-2.2 1-2.2 2.2-2.2m0-2c-2.3 0-4.2 1.9-4.2 4.2 0 2.3 1.9 4.2 4.2 4.2s4.2-1.9 4.2-4.2-1.9-4.2-4.2-4.2z"/><path class="st1" d="M56.6 403v6.6m85.9-6.6v6.6M56.6 425v6.6M87.5 403v6.6m0 15.4v6.6m28.6-28.6v6.6m0 15.4v6.6m26.4-6.6v6.6M31.3 417.3h6.6m123.4 0h6.6"/><path class="st4" d="M109.1 357v1.7m-1.7 0v1.8m0-3.5v1.7m0 3.5v1.8m5.2-7v1.7m-3.5 1.8v1.7m1.8-3.5v1.8m3.5 1.7v1.8m-3.5-1.8v1.8m-3.5 0v1.7m1.7-1.7v1.7m5.3-1.7v1.7m-1.8-1.7v1.7m0-5.2v1.7m0-3.5v1.8m1.8-3.5v1.7"/><path class="st10" d="M119.6 357.9h14.1m-14.1 3.5h10.5m-10.5 3.5h12.3"/><path class="st3" d="M192.3 330.5v5.3c-2.2 3.3-5.9 5.3-9.8 5.2l-62.2-.1c-4.6 0-9.1-1.2-13-3.5-3.8-2.1-6.1-6.2-6.1-10.5 0-3.9 3.1-7 7-7 13.7-2.3 26.5-8.5 36.8-17.8l3.2-2.9c3-3 7.8-2.7 10.4.6l6.3 7.8c4.7 5.9 13.8 5.1 17.4-1.5l1.2-2.3c.7-1.3 2.5-1.2 3.1.1 3.7 8.3 5.6 17.2 5.6 26.2v.4h.1z"/><path class="st3" d="M103 334l2.3.2c12.4 1 25 .7 37.4-.9L153 332c7.5-1 15.1-1.5 22.8-1.5h14.9"/><path class="st4" d="M103 324.4h10.1c7.2 0 13.8 4.1 17 10.5m-4.1-20.3c3.4 3.6 8.9 4.3 13.2 1.7l12-7.3c2.1-1.3 4.7-.9 6.5.8 1.5 1.5 3.5 2.1 5.6 1.7l5.5-1.1m20.9 3.5l-12.5 2.9c-6 1.4-10.2 6.7-10.2 12.9m-31-11.8l.2.3c4 4 6.2 9.4 6.2 15"/><path class="st4" d="M142.4 313.9c5.5 5.5 13.3 8 21 6.7l8.8-1.5"/><path class="st11" d="M134.5 313l-3.5-3.5m8.8 0l-3.5-3.5m8.7 0l-3.5-3.5m8.8 0l-3.5-3.5"/><path class="st4" d="M166.1 341l-8.8-8.7m17.5 8.7l-10.5-10.5m19.3 10.5l-10.5-10.5"/><path class="st3" d="M169.4 351.7h-68.9c-.6 0-1-.4-1-1v-8.5c0-.6.4-1 1-1h68.8c.6 0 1 .4 1 1v8.5c.1.6-.4 1-.9 1z"/><path class="st3" d="M166.8 351.6H103c-1 0-1.8.8-1.8 1.8v33.3c0 1 .8 1.8 1.8 1.8h63.9c1 0 1.8-.8 1.8-1.8v-33.3c-.1-1-.9-1.8-1.9-1.8z"/><path class="st6" d="M159.8 352.4v4c0 .6-.4 1-1 1h-10c-.6 0-1-.4-1-1v-4h12m1-1h-14v5c0 1.1.9 2 2 2h10c1.1 0 2-.9 2-2v-5z"/><path class="st10" d="M102.1 370.1l17.5 17.5"/><path class="st4" d="M109.1 357v1.7m-1.7 0v1.8m0-3.5v1.7m0 3.5v1.8m5.2-7v1.7m-3.5 1.8v1.7m1.8-3.5v1.8m3.5 1.7v1.8m-3.5-1.8v1.8m-3.5 0v1.7m1.7-1.7v1.7m5.3-1.7v1.7m-1.8-1.7v1.7m0-5.2v1.7m0-3.5v1.8m1.8-3.5v1.7"/><path class="st10" d="M119.6 357.9h14.1m-14.1 3.5h10.5m-10.5 3.5h12.3"/><path class="st3" d="M192.3 330.5v5.3c-2.2 3.3-5.9 5.3-9.8 5.2l-62.2-.1c-4.6 0-9.1-1.2-13-3.5-3.8-2.1-6.1-6.2-6.1-10.5 0-3.9 3.1-7 7-7 13.7-2.3 26.5-8.5 36.8-17.8l3.2-2.9c3-3 7.8-2.7 10.4.6l6.3 7.8c4.7 5.9 13.8 5.1 17.4-1.5l1.2-2.3c.7-1.3 2.5-1.2 3.1.1 3.7 8.3 5.6 17.2 5.6 26.2v.4h.1z"/><path class="st3" d="M103 334l2.3.2c12.4 1 25 .7 37.4-.9L153 332c7.5-1 15.1-1.5 22.8-1.5h14.9"/><path class="st4" d="M103 324.4h10.1c7.2 0 13.8 4.1 17 10.5m-4.1-20.3c3.4 3.6 8.9 4.3 13.2 1.7l12-7.3c2.1-1.3 4.7-.9 6.5.8 1.5 1.5 3.5 2.1 5.6 1.7l5.5-1.1m20.9 3.5l-12.5 2.9c-6 1.4-10.2 6.7-10.2 12.9m-31-11.8l.2.3c4 4 6.2 9.4 6.2 15"/><path class="st4" d="M142.4 313.9c5.5 5.5 13.3 8 21 6.7l8.8-1.5"/><path class="st11" d="M134.5 313l-3.5-3.5m8.8 0l-3.5-3.5m8.7 0l-3.5-3.5m8.8 0l-3.5-3.5"/><path class="st4" d="M166.1 341l-8.8-8.7m17.5 8.7l-10.5-10.5m19.3 10.5l-10.5-10.5"/><path class="st10" d="M102.1 370.1l17.5 17.5"/><path class="st4" d="M39.9 357.4v1.7m-1.7 0v1.8m0-3.5v1.7m0 3.5v1.8m5.2-7v1.7m-3.5 1.8v1.7m1.8-3.5v1.8m3.5 1.7v1.8m-3.5-1.8v1.8m-3.5 0v1.7m1.7-1.7v1.7m5.3-1.7v1.7m-1.8-1.7v1.7m0-5.2v1.7m0-3.5v1.8m1.8-3.5v1.7"/><path class="st10" d="M50.4 358.2h14.1m-14.1 3.5H61m-10.6 3.5h12.3"/><path class="st3" d="M92.1 352.1H31.3c-.6 0-1-.4-1-1v-8.5c0-.6.4-1 1-1h60.8c.6 0 1 .4 1 1v8.5c0 .6-.5 1-1 1z"/><path class="st10" d="M32.9 370.5L50.4 388"/><path class="st4" d="M39.9 357.4v1.7m-1.7 0v1.8m0-3.5v1.7m0 3.5v1.8m5.2-7v1.7m-3.5 1.8v1.7m1.8-3.5v1.8m3.5 1.7v1.8m-3.5-1.8v1.8m-3.5 0v1.7m1.7-1.7v1.7m5.3-1.7v1.7m-1.8-1.7v1.7m0-5.2v1.7m0-3.5v1.8m1.8-3.5v1.7"/><path class="st10" d="M50.4 358.2h14.1m-14.1 3.5H61m-10.6 3.5h12.3"/><path class="st3" d="M91.2 352H33.8c-1 0-1.8.8-1.8 1.8v33.3c0 1 .8 1.8 1.8 1.8h57.8l.1-36.9h-.5z"/><path class="st10" d="M32.9 370.5L50.4 388"/><path d="M29.6 326.7c.3 0 .6 0 .9-.1" fill="none"/><path d="M30 329.4s.1 0 0 0c.1 0 0 0 0 0z"/><path class="st6" d="M68.4 290c1 .8 3.2 2.7 5 5.5 3.1 4.7 3.4 9.5.9 14.2-.3.7-3.3 7.1-3.5 12-.2 4.2-.1 13.7 0 16.5h-3.1v-25.1l-3.4 3.4c-3 3-6.9 7.5-8.2 11.7-.3.8-.5 1.6-.7 2.4-1.4 5-2.4 8.6-10.4 8.9-1.6.1-3.2.1-4.7.1-12 0-17.5-1.7-18.1-1.9H22c-.1 0-2.8-.7-2.8-2.8 0-.8.4-2.3 2-2.9.9-.4 2.9-1.1 5.8-2.2l8.4-3 1.8-.6c.7.3 2.6 1 4.6 1 2.6 0 5.9-1.1 7.1-6.2 1-4.3 3.8-10.4 7.5-16.4 4-6.2 8.2-11.4 12-14.6m0-2.2c-.3 0-.5.1-.8.3-4.1 3.3-8.6 8.8-12.7 15.5-3.8 6.2-6.7 12.5-7.7 17-.7 3.1-2.4 4.6-5.2 4.6-2.1 0-4-.9-4.1-.9-.2-.1-.4-.1-.5-.1-.1 0-.3 0-.4.1-.1 0-.9.3-2.1.7l-8.4 3c-2.5.9-4.8 1.8-5.9 2.2-2.3.9-3.3 3.1-3.3 4.8 0 2.9 2.7 4.3 4.3 4.7.7.2 6.4 2 18.7 2 1.5 0 3.2 0 4.8-.1 9.4-.3 10.8-5.2 12.2-10.3.2-.8.4-1.5.7-2.3 1.2-4 5.2-8.4 7.7-10.9v21c0 .7.5 1.2 1.2 1.2h4.7c.3 0 .6-.1.9-.4.2-.2.4-.6.3-.9 0-.1-.2-12.3 0-17.2.2-4.5 3.1-10.8 3.3-11.2 2.8-5.3 2.5-11-1-16.3-2.6-3.9-5.9-6.3-6-6.4-.2 0-.5-.1-.7-.1z"/><path class="st4" d="M28.6 328.6l5.5 1.5c2 .5 4.5 1 7 1 1.9 0 3.9-.3 5.7-1.1 2.8-1.2 4.7-3.4 5.7-6.5 1.9-5.8 5.1-12.4 8.8-18.2 2.9-4.5 7.7-9.7 10.3-11.9"/><ellipse transform="rotate(-19.021 31.096 324.196)" cx="31.1" cy="324.2" rx="4.5" ry="2.4" fill="none" stroke="#05b"/><path class="st6" d="M1157.5 310v2.7H976.8V310h180.7m1-1H975.8v4.7h182.7V309z"/><path class="st15" d="M986.9 319.6l-10.8-6.3m171.8 5.9l10.2-5.9"/><path class="st6" d="M1146.6 320.8v1.9H988v-1.9h158.6m2-2H986v5.9h162.6v-5.9z"/><path class="st6" d="M1146.6 324.9v90H988v-90h158.6m2-2H986v94h162.6v-94z"/><path class="st6" d="M1059.3 417.4v15.8h-77.4v-15.8h77.4m2-2.1h-81.4v20h81.4v-20zm88.8 2.1v15.8h-37.6v-15.8h37.6m2-2.1h-41.6v20h41.6v-20zm-13.6-131.5v25.4h-139v-25.4h139m1-1h-141v27.4h141v-27.4z"/><path class="st6" d="M1016 304v-15.7h3.1l3.7 11.2c.3 1 .6 1.8.8 2.3.2-.6.5-1.4.8-2.5l3.8-11h2.8V304h-2v-13.2l-4.6 13.2h-1.9l-4.6-13.4V304h-1.9zm17.6 0l6-15.7h2.2l6.4 15.7h-2.4l-1.8-4.8h-6.6l-1.7 4.8h-2.1zm4.6-6.5h5.3l-1.6-4.4c-.5-1.3-.9-2.4-1.1-3.3-.2 1-.5 2-.8 3l-1.8 4.7zm12.9-9.3h10.2v1.9h-8.1V304h-2.1v-15.8zm9.6 15.8l6-15.7h2.2l6.4 15.7h-2.4l-1.8-4.8h-6.6l-1.7 4.8h-2.1zm4.6-6.5h5.3l-1.6-4.4c-.5-1.3-.9-2.4-1.1-3.3-.2 1-.5 2-.8 3l-1.8 4.7zm11.7 2l2-.5c.2.8.6 1.5 1.2 2.3s1.5 1.1 2.6 1.1 2-.3 2.6-.8c.6-.6 1-1.3 1-2.1 0-.9-.3-1.6-1-2.1s-1.6-.8-2.8-.8h-1v-1.8c1 0 1.7-.1 2.2-.2.5-.1 1-.4 1.3-.8.4-.5.6-1 .6-1.6 0-.7-.3-1.3-.8-1.8s-1.3-.8-2.2-.8c-.8 0-1.5.2-2 .6-.6.4-1 .9-1.2 1.6-.2.7-.3 1.1-.3 1.5l-2-.5c.5-3.3 2.3-5 5.5-5 1.5 0 2.8.4 3.7 1.3.9.9 1.4 1.9 1.4 3 0 1.5-.7 2.6-2.1 3.4.8.2 1.5.7 2 1.4s.8 1.5.8 2.5c0 1.4-.5 2.5-1.6 3.4-1 .9-2.4 1.4-4.2 1.4-2.8 0-4.8-1.5-5.7-4.7zm15.2-11.3h1.9v12.5l8.4-12.5h2.1V304h-1.9v-12.4l-8.4 12.4h-2.1v-15.8zM1109 304v-15.7h2.1v6.5h8.2v-6.5h2.1V304h-2.1v-7.4h-8.2v7.4h-2.1z"/><path fill="none" stroke="#05b" stroke-width="2" stroke-miterlimit="10" d="M979.9 434.3h172.2"/><path class="st6" d="M1110.3 427.4v6.7h-48.8v-6.7h48.8m1-1h-50.8v8.7h50.8v-8.7z"/><path class="st6" d="M1110.3 419.9v7.4h-48.8v-7.4h48.8m1-1h-50.8v9.4h50.8v-9.4z"/><path class="st15" d="M1061.3 423.4h50"/><path class="st6" d="M1043.4 335.7v73.2h-42.9v-73.2h42.9m2-2h-46.9v77.2h46.9v-77.2z"/><path class="st15" d="M998.5 361h46.3"/><path class="st6" d="M1134.5 335.7v73.2h-9.6v-73.2h9.6m2-2h-13.6v77.2h13.6v-77.2zm-27.2 2v83h-46.8v-83h46.8m2-2h-50.8v87h50.8v-87z"/><path class="st15" d="M1123.5 360.5h12"/><path class="st6" d="M1044.4 334.7v3h-44.9v-3h44.9m1-1h-46.9v5h46.9v-5zm90.1 1v2.9h-11.6v-2.9h11.6m1-1h-13.6v4.9h13.6v-4.9zm-53.4 28v19.5c-.3-.1-.7-.2-1.1-.2-1.9 0-3.5 1.6-3.5 3.6s1.6 3.6 3.5 3.6c.4 0 .8-.1 1.1-.2v23.9h-15.7v-50.2h15.7m1.3-2h-18.3c-.4 0-.7.3-.7.8V414h19.7v-53.5c0-.5-.3-.8-.7-.8zm-2.4 26.5c-.8 0-1.5-.7-1.5-1.6s.7-1.6 1.5-1.6 1.5.7 1.5 1.6-.7 1.6-1.5 1.6z"/><path class="st17" d="M1082.5 383c-.8 0-1.5.7-1.5 1.6s.7 1.6 1.5 1.6 1.5-.7 1.5-1.6-.6-1.6-1.5-1.6z"/><path class="st6" d="M1104.2 361.7v50.2h-15.7V388c.3.1.7.2 1.1.2 1.9 0 3.5-1.6 3.5-3.6s-1.6-3.6-3.5-3.6c-.4 0-.8.1-1.1.2v-19.5h15.7m1.3-2h-18.3c-.4 0-.7.3-.7.8V414h19.7v-53.5c0-.5-.3-.8-.7-.8zm-15.9 26.5c-.8 0-1.5-.7-1.5-1.6s.7-1.6 1.5-1.6 1.5.7 1.5 1.6-.7 1.6-1.5 1.6z"/><path class="st17" d="M1090.1 383c.8 0 1.5.7 1.5 1.6s-.7 1.6-1.5 1.6-1.5-.7-1.5-1.6.7-1.6 1.5-1.6z"/></svg>